v 25.4324 46.5778 -26.4285
v 24.4881 43.2863 -26.9183
v 22.0044 44.2174 -28.7659
v 22.706 47.5796 -28.3612
v 25.5725 42.4136 -24.05
v 26.829 45.5289 -23.5498
v 23.6373 40.0844 -27.3517
v 21.2849 40.9554 -29.1078
v 18.9195 44.9564 -29.4654
v 19.3541 48.2956 -29.0915
v 22.935 50.8304 -27.0251
v 25.8912 49.8665 -25.427
v 25.025 39.1757 -24.7322
v 28.1623 48.8765 -22.874
v 27.3187 44.5669 -20.4767
v 26.3167 41.4766 -21.1551
v 23.2333 36.8548 -28.1858
v 20.6305 37.7244 -29.6384
v 18.3618 41.6967 -29.7507
v 15.727 45.553 -29.721
v 15.9468 48.7551 -29.2749
v 19.4501 51.4392 -27.6887
v 25.7529 52.8871 -24.0242
v 22.9145 53.7001 -25.2935
v 25.9091 38.2657 -21.8254
v 24.235 35.9738 -25.3209
v 27.9737 52.3712 -21.7437
v 28.7143 47.6918 -19.4283
v 26.6078 40.6894 -18.2792
v 26.2984 43.8199 -17.7571
v 22.4778 33.505 -28.8089
v 19.7431 34.4895 -29.8982
v 17.6881 38.4691 -29.864
v 15.3071 42.3346 -29.7897
v 12.5314 46.075 -29.6604
v 12.6404 49.0641 -28.9976
v 15.9081 51.5281 -27.5631
v 19.4145 54.3051 -25.3881
v 23.0364 55.9387 -23.0852
v 25.1393 54.6595 -22.7844
v 26.3913 37.4091 -18.8147
v 25.2503 35.0169 -22.4129
v 23.1144 32.8482 -25.7671
v 26.0769 54.7962 -20.8285
v 28.4949 51.6405 -18.2276
v 26.4528 47.0319 -17.0894
v 26.411 43.1474 -14.9054
v 26.6407 39.95 -15.3254
v 21.0901 30.2864 -28.9328
v 18.6284 31.3594 -29.9373
v 16.8812 35.2839 -29.9063
v 14.7124 39.1418 -29.8418
v 12.2139 42.9389 -29.7794
v 9.32055 46.6494 -29.7257
v 9.37931 49.7119 -29.2983
v 12.5183 51.2756 -26.995
v 15.7631 53.4899 -24.9515
v 19.5773 56.0095 -21.5872
v 24.0723 55.9457 -20.9811
v 26.4262 36.689 -15.7575
v 25.7216 34.1545 -19.3102
v 24.217 31.8342 -22.9093
v 21.5696 29.9242 -26.0088
v 26.2193 54.9352 -17.7443
v 26.2915 50.0983 -15.8968
v 25.7532 46.1133 -14.4659
v 26.9069 39.3648 -12.3621
v 26.76 42.6264 -11.9929
v 19.1821 27.6504 -28.578
v 17.4252 28.4742 -29.9972
v 15.9385 32.1734 -29.9592
v 13.9508 35.9883 -29.8933
v 11.6777 39.7915 -29.8307
v 9.09926 43.5397 -29.7664
v 6.07067 47.1102 -29.7142
v 5.88653 50.2929 -29.6971
v 9.11961 51.6114 -26.9186
v 12.3802 52.8733 -24.4172
v 15.8909 54.0517 -21.6334
v 22.8598 56.4276 -18.971
v 26.7229 36.0324 -12.7026
v 25.9071 33.3852 -16.1704
v 24.7473 30.9312 -19.7736
v 22.5522 28.9153 -23.22
v 19.5184 27.4528 -25.9821
v 24.5115 53.1284 -15.5177
v 24.5891 48.8476 -14.1642
v 25.8149 45.6497 -11.6506
v 26.7715 42.1794 -9.01318
v 26.8868 38.869 -9.3475
v 17.5238 25.2228 -28.4059
v 16.3871 25.7751 -30.0416
v 14.9888 29.1173 -30.0179
v 13.0919 32.855 -29.9393
v 10.9408 36.6651 -29.8834
v 8.60725 40.4394 -29.8189
v 5.97498 44.0842 -29.756
v 2.88169 47.2314 -29.7348
v 2.33376 49.9903 -29.1921
v 5.62922 52.1469 -27.0685
v 8.90982 53.3328 -24.41
v 12.2309 54.2493 -21.6459
v 18.707 54.5832 -18.084
v 15.372 54.6581 -18.4898
v 21.5991 54.6467 -16.4924
v 26.4758 35.5333 -9.63682
v 26.1323 32.6825 -13.0281
v 25.0381 30.0977 -16.5927
v 23.1795 27.9107 -20.1821
v 20.4331 26.3596 -23.4532
v 17.4854 25.1326 -26.0519
v 22.9108 51.2826 -14.041
v 24.4298 48.3823 -11.4129
v 25.8132 45.2861 -8.70289
v 26.3553 38.4502 -6.46223
v 26.1485 41.6944 -6.1456
v 16.1088 22.8021 -28.4316
v 15.7261 23.6653 -29.9967
v 14.189 26.1672 -30.0688
v 12.2044 29.7327 -29.9847
v 10.0695 33.5545 -29.9329
v 7.86403 37.3645 -29.8719
v 5.529 41.0806 -29.8078
v 2.9611 44.4762 -29.7521
v 0.00423843 47.0073 -29.7174
v -0.437896 48.6727 -28.1448
v 2.27792 51.2631 -26.4479
v 5.38384 53.4407 -24.2708
v 8.74132 54.7229 -21.6528
v 12.0777 55.2546 -18.6767
v 15.1695 55.0871 -15.432
v 18.0755 54.2325 -15.0258
v 20.7547 53.2195 -14.4166
v 25.697 35.2283 -6.65501
v 25.5991 32.2679 -9.87764
v 25.0517 29.4035 -13.3613
v 23.3686 27.0821 -17.0015
v 21.0334 25.2398 -20.5566
v 17.8848 24.4119 -23.5008
v 15.4536 23.0557 -26.0865
v 22.7063 50.8695 -11.3989
v 24.2453 48.0114 -8.51807
v 25.3407 44.7947 -5.79768
v 25.2692 41.1973 -3.58053
v 25.3892 38.1521 -3.79888
v 14.6066 19.9247 -29.1567
v 13.8826 23.177 -30.0441
v 11.4246 26.5198 -30.0322
v 9.1614 30.3895 -29.9786
v 6.95043 34.3025 -29.9252
v 4.74495 38.1139 -29.8591
v 2.48219 41.7363 -29.7971
v 0.236426 44.7385 -29.7423
v -2.6049 46.4715 -29.6628
v -2.86019 46.9918 -27.5203
v -0.569922 49.6204 -25.6562
v 2.04644 52.3821 -23.713
v 5.20194 54.4473 -21.3457
v 8.59147 55.4069 -18.5186
v 11.9159 55.6255 -15.4271
v 17.941 54.2526 -12.0636
v 15.0785 55.2138 -12.2915
v 20.5315 52.8904 -11.6155
v 24.4788 35.1648 -3.88485
v 24.5693 32.1016 -6.87872
v 24.3957 29.0654 -10.1348
v 23.1668 26.4714 -13.7753
v 21.0307 24.5516 -17.4404
v 18.2328 23.3951 -20.8018
v 15.1234 23.1831 -23.506
v 13.0877 21.2446 -26.2428
v 22.3658 50.4339 -8.51541
v 23.856 47.5942 -5.56704
v 24.6289 44.1958 -3.04038
v 24.4519 38.0766 -1.53086
v 24.2901 40.6492 -1.30656
v 10.5402 19.6235 -29.9642
v 10.7995 23.2547 -30.0808
v 8.25818 27.1517 -30.0307
v 5.97858 31.1965 -29.9801
v 3.77747 35.1343 -29.9109
v 1.62672 38.9236 -29.8455
v -0.354394 42.4024 -29.7854
v -1.73041 44.8602 -29.7345
v -4.70943 44.6856 -29.649
v -5.25349 45.1363 -27.3196
v -3.20212 47.8057 -25.1443
v -0.925799 50.7313 -23.105
v 1.86832 53.3072 -20.8782
v 5.18798 54.8297 -18.3085
v 8.48617 55.6629 -15.2454
v 11.9385 55.6741 -12.1704
v 15.1523 55.123 -9.33487
v 17.8337 54.1969 -9.05898
v 20.2846 52.5963 -8.70474
v 23.028 35.4771 -0.97447
v 23.0335 32.2678 -4.12036
v 23.2499 29.0654 -7.03718
v 22.6972 26.0514 -10.5001
v 20.8664 23.8466 -14.3384
v 18.1975 22.7504 -17.9277
v 15.1805 22.5433 -20.8026
v 12.2678 22.2341 -23.3997
v 9.71523 20.4938 -26.5259
v 21.8888 49.9713 -5.57102
v 23.0321 46.8861 -2.7632
v 23.5571 43.3789 -0.653296
v 23.4446 40.0769 0.508252
v 23.7198 38.3528 -0.19128
v 6.2932 19.9511 -30.0933
v 7.39283 23.7234 -30.0817
v 4.99854 28.0063 -30.0344
v 2.74058 32.1208 -29.9635
v 0.548442 36.0814 -29.8944
v -1.43215 39.8789 -29.8295
v -2.79398 43.2756 -29.7946
v -6.66185 42.3948 -29.7212
v -7.62998 43.0582 -27.2891
v -5.72026 45.8449 -24.9087
v -3.73155 48.8809 -22.6633
v -1.14805 51.5901 -20.3277
v 1.91921 53.7212 -17.8925
v 5.22771 54.8843 -15.2381
v 8.22311 55.3015 -11.4802
v 12.352 55.4563 -9.1696
v 17.411 53.6362 -6.22859
v 14.9935 54.5627 -6.6706
v 19.7265 52.0247 -5.80404
v 22.8541 37.2437 0.54453
v 21.236 32.679 -1.52763
v 21.2975 29.6255 -4.51722
v 21.56 26.1758 -7.33508
v 20.4214 23.3728 -11.077
v 18.1853 21.6928 -15.1106
v 15.3485 21.7986 -18.3696
v 12.3075 22.3281 -20.4967
v 9.0116 21.7275 -23.2668
v 6.52608 19.2057 -26.5893
v 21.0638 49.2635 -2.72779
v 21.8932 45.9013 -0.238813
v 22.3914 42.3078 1.42559
v 22.3287 38.8594 1.8814
v 2.78 21.5414 -30.1487
v 3.92733 24.7555 -30.0939
v 1.71492 29.0318 -30.0178
v -0.520679 33.1349 -29.9456
v -2.6226 37.1252 -29.876
v -4.20511 40.969 -29.8174
v -8.45137 39.6784 -29.8099
v -9.76017 40.428 -27.1609
v -7.6433 43.3929 -24.6539
v -6.37491 46.8922 -22.4423
v -4.04733 49.7801 -19.9083
v -1.10787 52.0882 -17.4163
v 2.08215 53.8815 -14.9978
v 5.14914 54.6027 -12.4137
v 9.58591 54.9849 -8.34083
v 12.749 54.8503 -6.71061
v 14.5534 54.0071 -4.32873
v 16.6483 52.9162 -3.58302
v 18.8767 51.2661 -3.01695
v 21.8935 36.4729 1.66816
v 21.2185 34.9911 1.41388
v 19.4354 30.1836 -1.89509
v 19.828 32.7419 1.2799
v 19.4295 27.1487 -4.97083
v 19.5555 23.3187 -7.68306
v 17.8093 20.8738 -11.9285
v 14.9014 21.1323 -15.9167
v 13.0589 21.9683 -18.5767
v 9.08677 21.8452 -19.081
v 6.27454 19.6103 -23.2031
v 4.35575 16.454 -30.1855
v 3.59204 16.5875 -26.3416
v 19.8372 48.1743 -0.165739
v 20.5898 44.6516 2.00112
v 21.0712 40.921 3.1547
v 21.023 37.5137 3.00912
v 0.62753 18.0253 -30.2075
v -0.552948 22.9155 -30.1272
v 0.706893 25.9667 -30.0719
v -1.5327 30.1243 -29.9985
v -3.77358 34.2232 -29.9263
v -5.69244 38.3132 -29.8602
v -9.95298 36.5171 -29.8532
v -10.5132 37.0414 -26.8116
v -9.00486 40.612 -24.4377
v -8.16281 44.2028 -22.0892
v -6.85517 47.8499 -19.6627
v -4.10838 50.4202 -16.9714
v -0.974412 52.5539 -14.507
v 2.35522 53.831 -12.2339
v 4.67712 54.2694 -10.5001
v 5.95262 54.3287 -9.1192
v 10.5563 54.4675 -5.84432
v 7.17515 54.0257 -6.82256
v 12.9747 54.3411 -4.99936
v 15.4668 52.0518 -1.07396
v 13.3293 53.2118 -2.2798
v 17.72 50.3266 -0.357699
v 19.7722 35.6906 3.56407
v 18.0804 30.3338 1.08052
v 17.6459 27.7431 -2.27848
v 18.1014 33.4731 3.78566
v 17.3173 24.9021 -5.6447
v 16.8047 20.9357 -8.50011
v 14.3932 20.218 -13.0272
v 11.9938 21.5517 -16.8998
v 6.30796 19.2117 -19.8243
v 3.92596 17.7255 -23.193
v 1.70636 12.9989 -27.6851
v 2.19865 13.5399 -30.1858
v 18.5134 46.9246 2.2753
v 19.1726 43.0897 3.99212
v 19.6063 39.1816 4.52323
v 0.699935 16.1637 -30.2435
v -1.81123 20.5335 -30.1566
v -3.41478 24.2017 -30.1028
v -2.51175 27.0882 -30.0506
v -4.80798 31.2007 -29.983
v -6.95882 35.3698 -29.9318
v -11.2362 33.0207 -29.7674
v -10.0511 33.4139 -26.7599
v -8.55416 37.3833 -24.3672
v -9.0125 41.1709 -21.6953
v -8.85506 45.1738 -19.3695
v -7.01384 48.5744 -16.6378
v -3.99876 50.9873 -13.9819
v -0.628921 52.7834 -11.6554
v 2.66207 53.6884 -9.82205
v 3.68892 53.3019 -7.71011
v 8.40823 53.4309 -4.43358
v 11.6474 53.8811 -3.80177
v 4.87944 52.6999 -5.36926
v 11.6342 52.0204 -0.295917
v 13.8631 50.8194 1.22398
v 16.1907 48.9624 1.97679
v 18.085 37.094 5.65312
v 16.2259 31.1551 3.65888
v 16.1552 28.0045 0.690524
v 15.5625 25.6006 -2.90314
v 16.2012 34.7471 6.04589
v 14.9613 22.8029 -6.30684
v 13.4913 20.3363 -9.92522
v 11.2144 20.814 -14.1706
v 8.2555 20.2712 -15.4892
v 3.81994 17.5181 -20.2622
v 6.12797 17.9972 -16.6933
v 1.41571 18.0854 -22.9982
v 0.867718 17.012 -25.4558
v -1.80361 13.9528 -29.0891
v -0.0878483 15.5661 -26.1422
v 16.8674 45.2262 4.23948
v 17.489 41.1843 5.49775
v -0.769882 16.0453 -30.2414
v -0.818791 17.3247 -30.2165
v -4.63443 21.4718 -30.1481
v -3.47862 18.2502 -28.7262
v -6.43745 25.1962 -30.0793
v -5.60839 28.1512 -30.0294
v -7.85802 32.1913 -29.9094
v -11.3729 29.7445 -29.1975
v -10.2486 29.88 -26.4813
v -7.83104 33.6754 -24.4822
v -7.74012 38.1023 -21.4206
v -9.19566 41.9657 -18.8557
v -9.41239 46.0745 -16.3621
v -6.87128 49.0938 -13.491
v -3.55126 51.2741 -10.9706
v 0.0906453 52.621 -8.95009
v 1.33995 51.6915 -6.65338
v 6.20629 52.0433 -3.00674
v 9.81788 52.776 -2.25914
v 2.76693 50.7495 -4.41478
v 11.9815 49.0443 3.03371
v 9.71222 50.344 1.37665
v 14.4173 47.2148 3.8958
v 15.7787 39.0154 6.855
v 14.0884 32.3802 5.85639
v 14.2167 28.7679 3.31908
v 13.951 25.9096 -0.0136665
v 13.271 23.6596 -3.70437
v 13.6871 36.6031 7.15823
v 12.2663 21.4608 -7.35909
v 10.4407 20.6128 -11.2011
v 7.78991 19.1612 -12.4512
v 3.49213 16.6115 -17.4656
v 1.22187 17.7654 -20.3539
v 5.73875 16.8454 -13.6775
v -0.760831 19.1762 -23.1651
v -1.05179 18.2772 -25.6019
v -2.58659 16.1701 -27.8746
v 15.03 43.2008 5.73077
v -5.16643 19.6181 -28.3144
v -7.33059 22.3398 -30.0668
v -9.43476 25.9709 -30.0197
v -8.65289 29.0768 -29.9718
v -12.3437 26.5859 -29.2492
v -10.8005 26.1737 -26.3721
v -9.70089 30.1388 -23.8106
v -7.64002 34.4232 -21.0496
v -8.4 38.7988 -18.3475
v -10.1045 42.7334 -15.9713
v -9.43775 46.6653 -13.0844
v -6.30613 49.2795 -10.3178
v -2.57292 50.9137 -8.11687
v -1.04101 49.8695 -5.7857
v 4.06946 50.2024 -1.83814
v 7.79208 51.2677 -0.703567
v 0.586795 48.7784 -3.55531
v 7.62117 48.5646 2.91414
v 9.97295 47.0943 4.57502
v 12.5034 45.2351 5.48233
v 13.1792 41.1091 7.34971
v 11.5401 34.1926 6.89341
v 11.9034 30.071 5.31804
v 11.949 26.6298 2.56754
v 11.5761 24.0484 -0.914685
v 10.9244 21.7622 -4.55602
v 11.0398 38.6031 7.46968
v 9.61365 20.2065 -8.40438
v 7.30917 18.1983 -9.51293
v 3.36064 14.9791 -14.8546
v 0.771957 16.0523 -18.1744
v -1.24938 18.515 -20.4687
v 5.36647 15.7368 -10.708
v -2.4451 21.1615 -23.2657
v -2.97317 20.2192 -26.5043
v -5.46006 21.4138 -26.1649
v -8.39805 20.1571 -28.5329
v -9.88831 23.2653 -29.8873
v -12.9542 23.2586 -29.2407
v -11.6072 22.7367 -27.297
v -8.7948 25.4838 -23.5621
v -9.60282 31.2365 -20.8655
v -8.66289 35.3896 -17.9927
v -9.46609 39.4808 -15.4808
v -10.8288 43.3667 -12.8226
v -8.66129 46.7155 -9.77903
v -5.0047 48.7378 -7.44004
v -3.09114 47.5162 -5.338
v 2.05018 48.0357 -1.03376
v 5.69678 49.4451 0.59545
v -1.39545 46.5005 -3.04281
v 7.84039 44.9734 5.86407
v 5.47143 46.4473 4.03073
v 10.4716 43.0623 6.78407
v 8.9295 36.1134 7.20927
v 9.37922 31.8228 6.35312
v 9.59813 27.9314 4.44461
v 9.47607 24.811 1.51517
v 9.22362 22.0478 -1.77179
v 8.61189 19.8065 -5.50086
v 8.33967 40.6008 7.41708
v 6.49159 17.5773 -6.54861
v 3.07372 13.4752 -11.987
v 0.485177 13.9336 -15.8732
v -2.0299 16.0345 -18.9568
v -3.8299 19.4561 -20.9506
v 4.66615 14.9297 -7.6395
v -5.08766 23.1051 -23.2726
v -8.47628 22.1768 -26.0294
v -11.0833 20.8302 -28.8347
v -11.4763 22.2834 -29.5954
v -10.6382 27.727 -20.5612
v -10.4047 32.3586 -18.0688
v -9.77033 36.2198 -15.2215
v -10.4204 39.9729 -12.651
v -10.1143 43.4811 -9.54803
v -7.05291 46.09 -6.95626
v -4.695 44.8051 -5.28532
v -0.109728 45.9523 -0.305102
v 3.55111 47.4276 1.62644
v -3.31137 44.1207 -2.63185
v 3.4305 43.9815 4.55733
v 5.75473 42.4359 6.29835
v 6.32065 38.0097 6.99714
v 6.83882 33.6847 6.64146
v 7.16635 29.5742 5.58207
v 7.18847 25.9305 3.51071
v 7.17545 22.5678 0.857549
v 7.00951 19.8708 -2.67146
v 5.24287 17.2809 -3.56035
v 2.42926 12.5136 -8.85112
v 0.277411 11.7453 -13.3241
v -2.67651 13.6665 -16.7659
v -5.00279 16.7707 -19.4813
v -6.61387 20.8391 -21.214
v 3.54299 14.6099 -4.57668
v -9.44275 22.781 -20.8092
v -11.8434 24.744 -19.4766
v -12.1022 29.4054 -17.9797
v -11.3638 33.3372 -15.2565
v -10.5267 36.8052 -12.455
v -9.91129 40.1482 -9.74909
v -8.39434 43.0248 -6.88686
v -6.32819 42.1077 -4.95713
v -2.08676 43.578 0.135503
v 1.48528 45.135 2.27343
v -5.15003 41.6487 -2.22357
v 3.83075 39.796 6.08019
v 1.5109 41.3907 4.66131
v 4.36616 35.5031 6.35151
v 4.7352 31.3473 5.95389
v 4.88755 27.42 4.89363
v 4.68315 23.6356 3.06414
v 4.91652 20.1199 0.22807
v 3.47129 17.3632 -0.705145
v 1.36641 12.306 -5.71055
v -0.213772 10.2856 -10.1014
v -3.18262 11.072 -14.4279
v -5.94735 14.2318 -17.3685
v -8.00096 18.0698 -19.7364
v 1.87647 14.866 -1.77148
v -10.7395 19.9258 -19.2014
v -13.1622 21.9115 -18.2408
v -13.7636 26.535 -17.6597
v -13.3614 30.6741 -15.3883
v -12.1082 34.0534 -12.43
v -10.5161 37.069 -9.62615
v -8.99057 39.9588 -7.07145
v -7.95028 39.546 -4.47228
v -3.81874 40.9705 0.379517
v -0.456257 42.6513 2.60466
v -6.91093 39.1135 -1.75654
v -0.190211 38.7208 4.35845
v 2.00408 37.2068 5.60542
v 2.3712 33.0788 5.87569
v 2.58319 29.0795 5.57208
v 2.59764 25.2289 4.76571
v 1.8067 20.8428 3.14882
v 1.66611 17.2664 2.28504
v 0.141481 12.5835 -2.77751
v -1.18275 10.3282 -6.74644
v -3.82243 9.69858 -11.086
v -6.80626 11.7955 -14.8647
v -9.21867 15.318 -17.779
v 0.882696 14.4656 1.26586
v -12.0776 17.2693 -17.3422
v -14.415 19.4461 -16.511
v -14.9726 23.8088 -16.7278
v -15.1658 27.97 -15.2977
v -14.1938 31.5289 -12.488
v -12.439 34.5217 -9.49884
v -10.4354 37.2375 -6.78072
v -9.78345 37.0618 -3.93462
v -5.49954 38.3622 0.699932
v -2.19935 40.0349 2.67501
v -8.81299 36.6824 -1.09425
v 0.105827 34.7131 5.3096
v -1.92855 36.209 4.31332
v 0.282473 30.7774 5.66346
v 0.381427 26.9351 5.72829
v 0.618668 23.0234 5.9064
v 0.451097 18.9902 6.79401
v 0.979609 16.2337 5.6369
v 0.20225 11.7053 0.269528
v -1.97808 10.5405 -3.60975
v -4.44426 9.54888 -7.61348
v -7.53756 10.0678 -11.7122
v -10.2998 12.9664 -15.1725
v 1.06771 13.5306 4.44176
v -13.2201 15.1191 -14.7549
v -15.626 17.6018 -14.0978
v -16.0597 21.631 -15.3813
v -16.236 25.2346 -14.8075
v -16.1572 28.8425 -12.5216
v -14.5887 32.0312 -9.41455
v -12.2868 34.6631 -6.47888
v -11.6855 34.5274 -3.43362
v -7.2118 35.7878 1.35017
v -3.85549 37.3935 2.84245
v -10.6554 34.1224 -0.359687
v -3.571 33.8565 4.4831
v -1.81182 32.4197 5.26989
v -1.82482 28.7108 6.19767
v -1.49059 24.921 7.05171
v -0.805619 21.2387 8.34854
v -0.697617 17.5315 9.8379
v -0.0905776 15.1028 8.6665
v 1.23708 10.8178 3.2885
v -1.64528 9.06266 -0.534073
v -4.91316 9.71283 -4.37572
v -7.95917 9.79626 -8.16484
v -11.2039 11.184 -11.9981
v 0.297387 12.5572 7.60545
v -14.1525 13.5924 -11.6251
v -16.522 16.3681 -11.0405
v -17.2893 20.2761 -13.2831
v -16.8641 23.2676 -14.3575
v -17.4076 25.9208 -12.4417
v -16.507 29.2708 -9.36078
v -14.2985 32.09 -6.23541
v -13.6393 31.9256 -2.99339
v -8.94636 33.2929 2.30046
v -5.43656 34.8905 3.32621
v -12.561 31.4956 0.254382
v -4.04196 30.4972 5.7032
v -4.84608 32.2183 4.96579
v -3.98388 26.9395 7.33513
v -3.0098 23.2115 9.05705
v -1.70025 19.9088 11.0829
v -1.04707 16.3555 12.585
v -0.633152 14.1032 11.7172
v 0.840505 9.79619 6.5583
v 1.0109 7.88251 2.0268
v -5.11648 9.33531 -1.27281
v -8.14515 9.90401 -4.80389
v -11.5859 10.5204 -8.36435
v -0.305511 11.5352 10.6387
v -14.7712 12.6449 -8.15963
v -16.7898 15.8197 -7.6026
v -17.9325 19.5594 -10.304
v -17.778 23.0545 -12.542
v -17.7641 26.1291 -9.42139
v -16.0801 29.2484 -6.11609
v -15.3502 29.0637 -2.86114
v -10.5717 30.5274 3.33128
v -6.76697 32.3427 4.38503
v -14.2535 28.6407 0.392896
v -7.42806 28.9849 6.25498
v -5.16074 25.1415 9.40792
v -3.65137 22.3086 12.2113
v -1.71648 18.3726 13.9198
v -1.27952 15.397 14.7066
v -1.49685 13.2313 14.5209
v -0.0767002 8.95429 9.71903
v 0.860485 6.82373 5.5752
v -2.69833 6.02278 0.637187
v -0.456445 5.60826 1.94878
v -5.69953 6.50125 -0.196874
v -8.22287 9.82005 -1.75166
v -11.5264 10.5929 -4.88327
v -1.45447 10.7206 13.3901
v -14.6696 12.5023 -4.50081
v -16.3782 15.8065 -4.1726
v -17.8605 19.2578 -6.98014
v -18.4108 22.8666 -9.67714
v -17.3455 26.1 -6.18331
v -16.5414 25.9346 -2.98185
v -12.5687 27.7726 3.30969
v -15.4542 25.613 0.120937
v -7.7477 26.5633 9.46963
v -5.53534 24.7404 11.7215
v -3.34694 20.591 14.8646
v -2.73843 16.4267 16.0025
v -4.60113 13.4444 16.2217
v -1.80611 8.43194 12.0612
v -0.612293 6.07152 8.74875
v -1.21911 4.86272 4.37248
v -3.63218 4.16868 2.91375
v -6.24047 4.50765 2.00605
v -8.69909 7.21678 -0.211544
v -11.2367 10.6079 -1.6786
v -4.00423 10.1942 14.7303
v -14.3606 12.4779 -0.741827
v -15.9888 15.9567 -0.844449
v -17.3366 19.2022 -3.69029
v -18.1223 22.7436 -6.4593
v -17.2745 22.6342 -3.26945
v -14.5211 25.2663 3.23754
v -11.1649 26.9931 6.52103
v -16.2638 22.5119 -0.212418
v -10.6 26.258 9.68987
v -7.00224 26.8802 12.2936
v -4.15134 24.044 13.9381
v -4.87354 25.1597 13.2138
v -4.45706 22.3798 16.0188
v -4.64375 18.5448 16.8377
v -7.11049 16.3955 17.0003
v -3.58708 8.58429 13.3843
v -3.04686 6.50121 10.9963
v -2.76169 4.35788 7.22224
v -4.9482 3.69284 5.418
v -6.71442 3.56506 4.04619
v -9.10708 5.08718 2.0757
v -11.3933 8.58643 0.502346
v -8.31133 11.4238 16.363
v -6.71052 9.01053 14.5511
v -16.2739 12.9947 2.18728
v -17.2705 16.0683 2.2235
v -16.5327 19.2908 -0.57469
v -16.1158 22.4823 2.93086
v -13.962 25.1117 6.4425
v -13.5818 25.1546 10
v -9.89885 25.4293 12.9966
v -5.58808 26.791 13.7309
v -4.1625 25.6585 15.3222
v -5.09255 24.5442 17.1243
v -6.47344 20.8845 17.1545
v -8.94326 19.1676 17.2427
v -10.1272 14.6081 16.7849
v -5.13906 7.32806 12.7438
v -4.98804 5.11299 9.32974
v -7.01627 4.46274 7.30597
v -8.49964 4.51243 4.91013
v -11.4335 6.8445 3.056
v -13.8867 10.0177 1.43306
v -9.36961 7.79942 12.9975
v -11.603 9.83204 14.9789
v -15.4527 11.0061 2.72576
v -16.7067 12.9989 5.40772
v -17.5856 16.1027 5.69884
v -17.1541 19.3884 2.5728
v -16.0838 22.6068 6.25836
v -15.8306 22.8598 9.345
v -12.8036 25.402 13.6366
v -7.65791 28.4592 15.0727
v -8.64511 27.0684 14.4608
v -5.1984 28.761 15.272
v -3.90917 28.1291 16.3548
v -4.99739 27.0093 18.482
v -8.12877 23.4746 18.093
v -10.7412 21.9767 16.9339
v -11.7148 17.6847 17.1323
v -13.5034 13.111 15.8939
v -7.24649 6.3399 11.1695
v -9.20747 5.87131 8.82987
v -10.5182 6.26478 6.02062
v -13.5599 8.66914 4.10626
v -13.4578 9.94165 11.5463
v -11.1854 7.93309 10.1954
v -15.1984 10.6568 5.01662
v -16.0238 12.9868 8.82598
v -16.9527 16.2268 9.24404
v -17.603 19.5793 5.95945
v -16.9796 19.7385 9.54372
v -16.5619 23.9903 12.2382
v -8.96146 27.3521 15.7119
v -7.60323 30.689 17.3889
v -5.33731 31.6411 16.7549
v -2.71249 30.4438 18.0884
v -4.35241 29.7658 20.0673
v -6.78017 25.7249 20.2781
v -10.2588 25.1337 16.0992
v -13.2849 24.7007 16.9612
v -13.0793 20.5779 17.2128
v -14.541 16.6415 15.9027
v -14.9717 12.9768 12.366
v -12.4549 8.30766 7.09013
v -14.4634 10.3208 8.16201
v -15.9213 16.4873 12.7629
v -16.7221 20.471 13.0751
v -16.3652 26.4738 13.1276
v -17.9221 24.686 13.4513
v -8.83113 27.2401 18.1171
v -7.63609 29.8223 20.4565
v -6.92492 34.2028 20.1129
v -4.32202 34.658 18.5887
v -2.10795 33.4568 19.7156
v -3.89997 32.7395 21.3054
v -6.00289 28.5731 22.2431
v -14.5541 26.68 15.5049
v -14.7923 23.0727 18.3244
v -15.2201 19.9865 15.8766
v -17.932 22.9003 15.1798
v -15.8651 27.5964 14.1832
v -19.8843 26.1218 14.9061
v -18.8922 27.7779 13.7023
v -6.93674 33.1554 22.635
v -6.15541 36.8396 21.4685
v -3.61048 37.5812 20.2595
v -2.23509 35.5645 20.8057
v -3.6389 34.4938 22.0282
v -5.26787 31.9016 24.1621
v -16.418 28.4609 16.7416
v -15.9204 27.0523 18.7012
v -16.7133 22.3868 17.1147
v -16.9245 25.1862 19.9152
v -19.9297 24.5966 16.7979
v -17.4166 29.0645 14.8426
v -21.355 29.6687 14.325
v -21.849 28.0229 16.2848
v -5.12849 34.9249 22.6057
v -3.2217 36.4045 22.4898
v -3.90054 34.199 23.2973
v -18.4536 30.4625 18.1197
v -18.1671 29.1454 20.2103
v -18.8093 24.0657 18.8758
v -19.1494 27.2275 21.4274
v -21.9862 26.498 18.3027
v -19.5846 30.9375 15.7851
v -23.6979 30.1914 17.8285
v -24.1408 32.1862 15.1994
v -20.6295 32.4623 19.5443
v -20.4888 30.9991 21.697
v -20.9378 25.9528 20.4608
v -21.2806 29.1823 22.7522
v -23.9259 28.5053 19.7342
v -21.8587 33.1819 17.2153
v -25.7962 33.8126 18.0383
v -25.4842 32.2769 19.7312
v -22.7034 34.2942 21.3119
v -22.3603 33.018 22.9094
v -22.9424 27.8694 21.7571
v -24.0525 30.5606 24.05
v -25.7841 30.1517 21.3886
v -23.791 35.1352 19.1329
v -26.7421 33.6573 21.5265
v -26.6538 35.312 19.4829
v -23.6264 35.285 21.8975
v -25.546 34.5084 25.1093
v -24.3962 29.4587 22.7554
v -25.1035 32.7042 22.6753
v -27.0532 36.4026 19.6451
v -25.2172 36.9331 21.5901
v -25.1555 35.4565 21.428
v -24.7341 36.2315 20.2105
v -3.56582 43.61 26.2125
v -3.56715 43.5543 26.2556
v -3.54991 43.5887 26.1704
v -3.56209 43.5927 26.2111
v -3.56209 43.5927 26.2111
v -3.54278 43.5865 26.1465
v -3.55312 43.6176 26.1619
v -3.57743 43.6368 26.2295
vn 0.57841 -0.0335286 -0.815057
vn 0.863707 -0.226727 -0.450117
vn 0.585976 -0.0453066 -0.809061
vn 0.23184 0.0733241 -0.969986
vn 0.568977 0.223529 -0.791391
vn 0.891032 -0.117359 -0.438507
vn 0.810757 -0.075946 -0.580435
vn 0.918165 -0.281712 -0.278589
vn 0.561491 0.0821305 -0.823397
vn 0.229275 0.048606 -0.972147
vn 0.0838247 0.115306 -0.989787
vn 0.253605 0.369734 -0.893857
vn 0.503987 0.41646 -0.756676
vn 0.952786 -0.0798267 -0.292961
vn 0.905223 -0.0754175 -0.41819
vn 0.746957 0.271468 -0.606927
vn 0.914055 -0.318405 -0.25124
vn 0.986942 -0.132252 0.0919505
vn 0.433809 0.0136208 -0.900902
vn 0.162738 0.0650954 -0.98452
vn 0.056906 0.0462922 -0.997306
vn -0.0292108 0.176579 -0.983853
vn 0.042872 0.463351 -0.885137
vn 0.186484 0.568786 -0.801066
vn 0.462634 0.609833 -0.643486
vn 0.986535 -0.0670977 -0.149156
vn 0.925958 -0.144304 -0.348967
vn 0.925276 -0.215082 -0.312417
vn 0.646247 0.624097 -0.439168
vn 0.987539 0.0937086 -0.126435
vn 0.825844 -0.333003 0.455073
vn 0.99634 0.0853893 -0.00392929
vn 0.334496 -0.107812 -0.93621
vn 0.0497154 0.034235 -0.998177
vn 0.00817555 0.0242111 -0.999673
vn -0.00600327 0.0301091 -0.999529
vn 0.088755 0.174094 -0.980721
vn -0.0980971 0.589231 -0.801987
vn -0.12927 0.699651 -0.702693
vn -0.0241682 0.850688 -0.525115
vn 0.511921 0.813147 -0.276998
vn 0.997739 -0.0618648 -0.0262567
vn 0.966487 -0.164624 -0.19698
vn 0.881715 -0.240282 -0.406009
vn 0.882775 -0.40637 -0.235739
vn 0.806875 0.590183 -0.0252251
vn 0.751939 -0.173154 0.636086
vn 0.991327 0.0543629 0.119649
vn 0.993471 0.0689209 -0.090914
vn 0.377315 -0.262479 -0.88811
vn 0.00877066 0.0118252 -0.999892
vn -0.00236983 0.015384 -0.999879
vn -0.000148241 0.0163368 -0.999867
vn 0.0129996 0.0245411 -0.999614
vn 0.070611 0.071724 -0.994922
vn 0.129576 0.72935 -0.671758
vn -0.195064 0.802858 -0.563356
vn -0.356745 0.890686 -0.2818
vn 0.00978028 0.992684 -0.120343
vn 0.436897 0.899165 -0.0249668
vn 0.993534 -0.0479767 -0.102899
vn 0.982937 -0.167683 -0.0756182
vn 0.938968 -0.260592 -0.224568
vn 0.803788 -0.400025 -0.440347
vn 0.771396 -0.611031 -0.177733
vn 0.608901 0.291408 0.737781
vn 0.866359 0.0571952 0.496136
vn 0.964683 0.262223 -0.0250384
vn 0.999209 0.0390241 0.00761633
vn 0.596253 -0.332827 -0.730554
vn 0.0126914 0.0153748 -0.999801
vn -0.00174995 0.0163378 -0.999865
vn 0.000159462 0.0165544 -0.999863
vn -0.000637462 0.0167245 -0.99986
vn -0.00129767 0.0135095 -0.999908
vn -0.0787473 0.0784138 -0.993806
vn 0.173077 0.797105 -0.578506
vn 0.0905559 0.836842 -0.539902
vn -0.0745878 0.952232 -0.296127
vn -0.289139 0.953936 0.0800303
vn -0.318918 0.879738 0.352636
vn 0.127961 0.747853 0.651415
vn 0.995367 -0.091642 0.0290917
vn 0.981754 -0.150958 -0.115632
vn 0.957909 -0.252597 -0.136397
vn 0.854393 -0.429364 -0.292678
vn 0.691051 -0.553724 -0.464584
vn 0.784724 -0.613752 -0.0867042
vn 0.535616 0.260176 0.803383
vn 0.906033 0.414642 0.0847135
vn 0.955472 0.292564 0.038459
vn 0.979202 0.0280264 0.200943
vn 0.762145 -0.363996 -0.535389
vn 0.0130728 0.0126455 -0.999835
vn -0.00516221 0.0183674 -0.999818
vn 0.00073959 0.0150813 -0.999886
vn -4.99651e-05 0.0170547 -0.999855
vn -0.000195766 0.017119 -0.999853
vn 0.00363122 0.0103854 -0.99994
vn -0.276758 0.332673 -0.901517
vn -0.224649 0.834906 -0.502459
vn 0.0806018 0.869861 -0.486667
vn 0.119389 0.890633 -0.43877
vn 0.11403 0.963874 -0.240717
vn 0.139959 0.990129 0.00743788
vn 0.0247495 0.949229 0.313611
vn 0.217421 0.631843 0.743977
vn 0.965624 -0.171326 0.195492
vn 0.970716 -0.222772 0.0899036
vn 0.957164 -0.273379 -0.0954004
vn 0.876498 -0.445462 -0.182525
vn 0.743998 -0.565414 -0.356053
vn 0.627479 -0.665267 -0.404586
vn 0.783751 -0.605206 0.139496
vn 0.815712 0.559704 0.146101
vn 0.878838 0.469162 0.0867784
vn 0.943999 0.245363 0.220597
vn 0.941749 0.0206122 0.335684
vn 0.528319 -0.246544 -0.812462
vn 0.0175509 -0.0156137 -0.999724
vn -0.00936541 0.0183085 -0.999789
vn 0.00110941 0.0141732 -0.999899
vn 0.000739584 0.0164221 -0.999865
vn 1.0987e-05 0.0172632 -0.999851
vn 0.000486213 0.0168024 -0.999859
vn -0.00484006 0.00789052 -0.999957
vn -0.415003 0.742407 -0.525933
vn -0.524139 0.776448 -0.349867
vn -0.320051 0.857794 -0.40219
vn -0.0467799 0.919356 -0.390636
vn 0.0808869 0.961812 -0.261487
vn 0.172848 0.978357 -0.11376
vn 0.301412 0.953414 -0.0123322
vn 0.398316 0.914406 0.0721491
vn 0.655461 0.73978 0.151976
vn 0.904977 -0.243097 0.349171
vn 0.917597 -0.305779 0.253998
vn 0.930846 -0.340061 0.133735
vn 0.86041 -0.503777 -0.076836
vn 0.759051 -0.627311 -0.174133
vn 0.54858 -0.745426 -0.378683
vn 0.561686 -0.820516 -0.106125
vn 0.635854 -0.606426 0.477428
vn 0.796734 0.584374 0.15402
vn 0.864097 0.462391 0.198822
vn 0.932856 0.176315 0.314155
vn 0.920475 0.0147636 0.390523
vn 0.134492 -0.13057 -0.982275
vn 0.000907059 0.00421976 -0.999991
vn 0.00188166 0.0149429 -0.999887
vn 0.00278334 0.0152067 -0.999881
vn 5.71899e-05 0.017362 -0.999849
vn 0.000156637 0.017213 -0.999852
vn -0.000901178 0.0174782 -0.999847
vn -0.0171356 0.0181513 -0.999688
vn -0.612932 0.742048 -0.27144
vn -0.585945 0.742112 -0.325483
vn -0.522919 0.763292 -0.379396
vn -0.340513 0.884776 -0.318156
vn -0.132222 0.975962 -0.173248
vn 0.0227913 0.995247 -0.0946782
vn 0.153981 0.987752 -0.025237
vn 0.32001 0.947082 0.0251072
vn 0.495481 0.864904 0.0802455
vn 0.684422 0.711539 0.15899
vn 0.851779 -0.318439 0.416016
vn 0.823453 -0.382776 0.418817
vn 0.87644 -0.374195 0.303036
vn 0.848247 -0.522606 0.0857863
vn 0.749185 -0.655834 -0.0927528
vn 0.550822 -0.815417 -0.178017
vn 0.31996 -0.898247 -0.301295
vn 0.446194 -0.848467 0.28463
vn 0.0730339 -0.935259 0.346348
vn 0.763888 0.612365 0.203678
vn 0.8349 0.437638 0.333789
vn 0.894063 0.124248 0.430364
vn 0.896919 0.000776937 0.442194
vn 0.0168234 -0.0168079 -0.999717
vn 0.00230768 0.0143712 -0.999894
vn 0.00472344 0.0151481 -0.999874
vn -1.72576e-05 0.0175733 -0.999846
vn 3.31603e-05 0.0172662 -0.999851
vn 6.49954e-05 0.0173101 -0.99985
vn 0.00648913 0.0223907 -0.999728
vn -0.0338962 0.0428522 -0.998506
vn -0.658088 0.657474 -0.366945
vn -0.596862 0.729979 -0.332997
vn -0.557656 0.721086 -0.411163
vn -0.51113 0.807908 -0.293308
vn -0.334551 0.934513 -0.1215
vn -0.200301 0.978401 -0.0511032
vn -0.0431978 0.997974 0.0467079
vn 0.134961 0.990028 0.0403704
vn 0.304959 0.926238 0.221547
vn 0.512469 0.821454 0.250177
vn 0.671499 0.700115 0.242751
vn 0.806751 -0.331169 0.489367
vn 0.725847 -0.482103 0.490635
vn 0.720339 -0.437941 0.537883
vn 0.81066 -0.499497 0.305506
vn 0.755307 -0.655173 0.0161144
vn 0.601991 -0.770548 -0.209433
vn 0.299228 -0.922112 -0.245299
vn 0.194341 -0.976308 -0.0951516
vn 0.164879 -0.91258 0.374184
vn 0.100395 -0.994592 0.0265905
vn 0.720118 0.593695 0.359104
vn 0.764432 0.412251 0.495674
vn 0.850372 0.14358 0.506213
vn 0.806737 -0.158537 0.569247
vn 0.0118353 0.00522683 -0.999916
vn 0.00652327 0.0146402 -0.999872
vn 7.27319e-05 0.017272 -0.999851
vn -3.4024e-05 0.0174235 -0.999848
vn -4.26654e-05 0.0170513 -0.999855
vn 0.00369164 0.0120289 -0.999921
vn -0.027215 0.0412538 -0.998778
vn -0.714401 0.52092 -0.467198
vn -0.716205 0.667492 -0.203726
vn -0.570944 0.696096 -0.435285
vn -0.546629 0.781249 -0.301408
vn -0.497243 0.858566 -0.124955
vn -0.314934 0.94883 -0.0231847
vn -0.237575 0.96797 0.0811956
vn -0.0980671 0.988394 0.11602
vn 0.124971 0.968678 0.21458
vn 0.318206 0.896419 0.308509
vn 0.490378 0.792999 0.3615
vn 0.611268 0.702394 0.364684
vn 0.782101 -0.381357 0.492834
vn 0.646479 -0.526792 0.551865
vn 0.741091 -0.528419 0.414194
vn 0.592047 -0.480424 0.64705
vn 0.749437 -0.619209 0.234361
vn 0.670538 -0.739217 -0.0627371
vn 0.279934 -0.917885 -0.281289
vn 0.00988424 -0.967035 -0.254451
vn 0.157156 -0.987217 0.0265298
vn 0.479108 -0.832883 0.277058
vn 0.783731 -0.620948 0.0137338
vn 0.649094 0.549359 0.526195
vn 0.701894 0.376752 0.604485
vn 0.754604 0.0731934 0.652086
vn 0.774333 -0.202852 0.599382
vn 0.0159022 0.0121956 -0.999799
vn 0.000251318 0.017454 -0.999848
vn 0.000222461 0.0179094 -0.99984
vn -3.11538e-05 0.0175892 -0.999845
vn -8.71008e-05 0.0173834 -0.999849
vn 0.00136816 0.0158247 -0.999874
vn -0.0109406 0.0314031 -0.999447
vn -0.889011 0.289709 -0.354581
vn -0.833897 0.547936 0.0661921
vn -0.773861 0.513769 -0.370379
vn -0.568611 0.751656 -0.334209
vn -0.51867 0.838833 -0.165347
vn -0.446433 0.891767 -0.0738191
vn -0.282469 0.956945 0.0668466
vn -0.247884 0.958619 0.140008
vn -0.084726 0.966545 0.242099
vn -0.218717 0.953021 0.209558
vn 0.110398 0.960305 0.256176
vn 0.251473 0.860209 0.443624
vn 0.442627 0.765326 0.467286
vn 0.567327 0.646464 0.510122
vn 0.702212 -0.340972 0.625009
vn 0.73155 -0.5724 0.370396
vn 0.623431 -0.557255 0.548453
vn 0.669356 -0.44708 0.593366
vn 0.448229 -0.503202 0.738836
vn 0.632556 -0.754596 0.174523
vn 0.238127 -0.942696 -0.233708
vn -0.0473352 -0.961809 -0.269598
vn 0.0562324 -0.976939 -0.205979
vn 0.656641 -0.753513 -0.0322648
vn 0.647416 -0.743707 0.166592
vn 0.829486 -0.540093 0.142312
vn 0.60841 0.506314 0.611134
vn 0.638447 0.301912 0.707979
vn 0.69406 -0.0391466 0.718852
vn 0.0106617 -0.00231693 -0.999941
vn -0.00152638 0.0162928 -0.999866
vn -0.000290143 0.0182144 -0.999834
vn -0.000300383 0.0174909 -0.999847
vn 0.00063776 0.0179478 -0.999839
vn 0.00535655 0.0186661 -0.999811
vn -0.0120111 0.0240425 -0.999639
vn -0.988948 0.117637 0.0902457
vn -0.880679 0.0758042 0.467609
vn -0.926402 0.332639 -0.176437
vn -0.785045 0.512949 -0.347257
vn -0.553936 0.806824 -0.2054
vn -0.485296 0.864389 -0.131605
vn -0.365223 0.930869 0.00971931
vn -0.254852 0.962299 0.0950367
vn -0.236324 0.938785 0.250666
vn -0.208553 0.928911 0.305989
vn -0.0526446 0.953201 0.297718
vn -0.270322 0.908562 0.318497
vn 0.0286859 0.924802 0.379365
vn 0.104437 0.829327 0.548916
vn 0.346077 0.698931 0.62588
vn 0.49701 0.600693 0.626217
vn 0.676729 -0.163369 0.717878
vn 0.618549 -0.515099 0.593355
vn 0.700014 -0.606295 0.377341
vn 0.540778 -0.668063 0.511128
vn 0.594603 -0.36634 0.715711
vn 0.291951 -0.583745 0.757632
vn 0.1566 -0.985005 0.0723937
vn -0.0573147 -0.954102 -0.293946
vn 0.215788 -0.930014 -0.297507
vn 0.597208 -0.798829 -0.072213
vn 0.72726 -0.666632 -0.163384
vn -0.059998 -0.926588 0.371262
vn -0.14768 -0.636188 -0.757268
vn 0.179697 -0.440664 0.879502
vn 0.513415 0.422208 0.747091
vn 0.547846 0.171855 0.818737
vn -0.00302014 0.0192183 -0.999811
vn -5.80737e-05 0.0147569 -0.999891
vn -0.37219 -0.182733 -0.909991
vn -0.0012915 0.0178565 -0.99984
vn -0.000256364 0.0162613 -0.999868
vn -0.00792136 0.00779288 -0.999938
vn -0.0363609 -0.0047443 -0.999327
vn -0.926644 0.0905826 0.364864
vn -0.734777 -0.125129 0.666668
vn -0.947408 -0.250574 0.199075
vn -0.967357 0.153968 -0.201282
vn -0.749863 0.610721 -0.254411
vn -0.55153 0.825019 -0.123122
vn -0.461883 0.886803 -0.0156197
vn -0.323996 0.938078 0.122623
vn -0.302869 0.85562 0.419743
vn -0.28366 0.878527 0.384353
vn -0.199136 0.901373 0.384541
vn -0.397433 0.775445 0.490645
vn -0.107071 0.879136 0.464387
vn -0.0603099 0.741144 0.668632
vn 0.205043 0.603117 0.770848
vn 0.343711 0.531233 0.774373
vn 0.514373 0.10747 0.850806
vn 0.501599 -0.476676 0.721927
vn 0.572612 -0.568961 0.590253
vn 0.587473 -0.714171 0.380573
vn 0.467187 -0.72172 0.510742
vn 0.334209 -0.143754 0.931471
vn 0.0310622 -0.832384 0.553328
vn -0.122007 -0.99147 -0.0458358
vn 0.383254 -0.915052 -0.125679
vn 0.540921 -0.804801 -0.244337
vn -0.118934 -0.987999 -0.0985543
vn 0.766034 -0.630088 -0.127203
vn -0.478683 -0.782341 0.398504
vn -0.477904 -0.624185 0.618063
vn -0.188826 -0.276042 -0.942415
vn -0.497729 -0.365641 0.786494
vn 0.372786 0.327334 0.868264
vn -0.292723 -0.479329 -0.82738
vn -0.0140379 0.0111551 -0.999839
vn -0.650365 -0.179655 -0.738072
vn -0.0138008 0.0197872 -0.999709
vn -0.0147867 0.021493 -0.99966
vn -0.151622 -0.0574051 -0.98677
vn -0.879801 0.194873 0.43356
vn -0.830747 0.318862 0.456275
vn -0.979671 -0.103421 0.171895
vn -0.945465 -0.320624 -0.0574082
vn -0.956022 0.114788 -0.2699
vn -0.707605 0.698264 -0.108271
vn -0.564041 0.825203 0.0299549
vn -0.441216 0.870397 0.218488
vn -0.352441 0.764815 0.539299
vn -0.468227 0.768776 0.4356
vn -0.265586 0.852198 0.450802
vn -0.375783 0.718745 0.584972
vn -0.216379 0.814121 0.538876
vn -0.0957198 0.694053 0.713533
vn 0.111741 0.54817 0.828869
vn 0.247802 0.433801 0.866262
vn 0.372846 0.30223 0.877293
vn 0.20327 -0.270856 0.940913
vn 0.416314 -0.512929 0.750724
vn 0.471185 -0.687771 0.552227
vn 0.494982 -0.779541 0.383808
vn 0.384832 -0.833548 0.396361
vn 0.130824 -0.0278044 0.991016
vn 0.0880077 -0.981154 0.17202
vn 0.590636 -0.804636 -0.0609181
vn 0.601256 -0.737983 -0.306388
vn 0.127867 -0.887965 -0.441778
vn -0.346155 -0.913416 -0.21412
vn 0.787744 -0.60788 -0.0997016
vn -0.739723 -0.601807 0.301063
vn -0.746603 -0.277873 0.60446
vn -0.309127 -0.709693 0.633069
vn -0.119422 -0.605369 -0.786935
vn -0.0455043 -0.0137924 -0.998869
vn -0.245627 0.0841885 -0.965702
vn -0.848317 0.105909 0.518789
vn -0.896736 -0.0354623 0.441142
vn -0.870824 0.481941 -0.096944
vn -0.964516 -0.00658521 -0.263942
vn -0.933619 -0.248513 -0.258064
vn -0.945132 0.282768 -0.163605
vn -0.695606 0.708477 0.119136
vn -0.535529 0.774642 0.33636
vn -0.445461 0.606885 0.65822
vn -0.521339 0.715845 0.464512
vn -0.376483 0.775897 0.506205
vn -0.508231 0.575253 0.640926
vn -0.283644 0.774961 0.564784
vn -0.181415 0.617829 0.765098
vn 0.0443816 0.484223 0.873818
vn 0.189871 0.431073 0.882114
vn 0.0236857 -0.126848 0.991639
vn 0.138582 -0.34288 0.929101
vn 0.290382 -0.595252 0.749235
vn 0.36809 -0.765594 0.527613
vn 0.496741 -0.772244 0.396091
vn 0.481819 -0.856807 0.183664
vn -0.00226274 0.152116 0.98836
vn 0.669252 -0.738864 0.0786263
vn 0.70967 -0.66931 -0.219986
vn 0.386142 -0.74825 -0.539459
vn 0.0469979 -0.662932 -0.747203
vn -0.421253 -0.739014 -0.525742
vn 0.791877 -0.608233 0.0546323
vn -0.466287 -0.786715 0.404543
vn -0.168491 -0.768854 0.616825
vn -0.113061 -0.442338 -0.889693
vn -0.22876 0.0200859 -0.973276
vn -0.788201 -0.578319 0.210444
vn -0.635816 -0.325206 0.699985
vn -0.954035 -0.0273992 -0.298442
vn -0.786718 0.461591 -0.409887
vn -0.928106 0.0445997 -0.369635
vn -0.956674 -0.173673 -0.233693
vn -0.894339 0.403802 0.192618
vn -0.634675 0.626141 0.452919
vn -0.463416 0.398872 0.791294
vn -0.572249 0.675953 0.464348
vn -0.496971 0.712469 0.495388
vn -0.648561 0.499466 0.574371
vn -0.385115 0.707666 0.592363
vn -0.345043 0.443274 0.827317
vn -0.138665 0.317308 0.93813
vn -0.0919481 -0.0585946 0.994038
vn -0.0310029 -0.198744 0.979561
vn 0.0951896 -0.433808 0.895963
vn 0.237712 -0.669539 0.703712
vn 0.457447 -0.697648 0.551389
vn 0.541917 -0.756455 0.366201
vn 0.677556 -0.669078 0.305372
vn 0.727936 -0.684607 -0.0377255
vn 0.539859 -0.71673 -0.441418
vn 0.222832 -0.712057 -0.665824
vn 0.00692304 -0.500893 -0.865481
vn -0.322059 -0.581555 -0.747042
vn 0.763366 -0.600523 0.238
vn -0.357325 -0.674504 0.646037
vn -0.32641 -0.707844 0.626429
vn -0.190275 -0.302381 -0.934003
vn -0.794364 -0.156949 -0.586816
vn -0.806663 0.306507 -0.505321
vn -0.780869 0.448909 -0.434424
vn -0.9532 0.0401449 -0.299664
vn -0.975915 -0.0898188 0.1988
vn -0.762672 0.364327 0.534414
vn -0.499586 0.311481 0.808327
vn -0.661845 0.618025 0.424273
vn -0.538019 0.67691 0.502323
vn -0.70939 0.540334 0.452554
vn -0.481254 0.577433 0.65952
vn -0.405411 0.278527 0.870669
vn -0.301182 0.111365 0.947041
vn -0.170453 -0.101276 0.980147
vn -0.0573337 -0.253239 0.965703
vn 0.134622 -0.488963 0.861854
vn 0.376352 -0.574971 0.726476
vn 0.537241 -0.682287 0.495839
vn 0.668145 -0.566024 0.482907
vn 0.673764 -0.717573 0.176441
vn 0.633526 -0.7534 -0.176164
vn 0.297507 -0.702884 -0.646098
vn -0.000376283 -0.658869 -0.752257
vn -0.118109 -0.428321 -0.895875
vn -0.372518 -0.560039 -0.739991
vn 0.666164 -0.601852 0.440454
vn -0.534003 -0.169925 -0.828231
vn -0.708789 0.18158 -0.68165
vn -0.72383 0.479081 -0.49654
vn -0.822565 0.463992 -0.328782
vn -0.989767 0.116396 0.0825409
vn -0.8916 0.0238094 0.452197
vn -0.731443 0.318431 0.602986
vn -0.699025 0.549861 0.457183
vn -0.590865 0.567474 0.573456
vn -0.732064 0.55885 0.389576
vn -0.51974 0.456996 0.72182
vn -0.423442 0.15195 0.893089
vn -0.310877 0.0216552 0.950204
vn -0.154474 -0.107205 0.982163
vn 0.0249641 -0.259249 0.965488
vn 0.297899 -0.430201 0.852164
vn 0.475369 -0.534249 0.699001
vn 0.69255 -0.343454 0.634361
vn 0.610504 -0.698423 0.373484
vn 0.578022 -0.800008 0.160866
vn 0.262039 -0.901779 -0.3437
vn -0.0216522 -0.690491 -0.723017
vn -0.12941 -0.570051 -0.811354
vn -0.360221 -0.310874 -0.879544
vn 0.801111 -0.494593 0.337045
vn -0.542954 -0.280104 -0.791671
vn -0.662251 0.00786663 -0.749241
vn -0.703551 0.393119 -0.592008
vn -0.726463 0.584829 -0.360869
vn -0.829762 0.54568 -0.117164
vn -0.92591 0.337976 0.16871
vn -0.784412 0.542379 0.30087
vn -0.674064 0.529836 0.514697
vn -0.638577 0.461835 0.615571
vn -0.70472 0.619857 0.345176
vn -0.535918 0.314402 0.783546
vn -0.351018 0.192123 0.916447
vn -0.245176 0.042037 0.968567
vn -0.0552014 -0.0783352 0.995398
vn 0.199068 -0.201052 0.95914
vn 0.563166 -0.395746 0.725417
vn 0.961444 -0.0358473 0.272654
vn 0.893431 -0.446967 0.0447303
vn 0.569141 -0.782545 0.252394
vn 0.186167 -0.982124 0.0278247
vn -0.0687379 -0.894548 -0.441656
vn -0.155943 -0.690715 -0.706112
vn -0.408159 -0.389836 -0.82549
vn 0.988858 -0.143993 0.0377735
vn -0.629402 -0.43525 -0.643748
vn -0.691858 -0.124658 -0.711191
vn -0.782952 0.170044 -0.598391
vn -0.752816 0.522345 -0.40053
vn -0.750107 0.632501 -0.193084
vn -0.804975 0.593308 0.000975433
vn -0.775243 0.600438 0.196145
vn -0.594887 0.576486 0.560154
vn -0.615668 0.451349 0.645939
vn -0.722593 0.609999 0.325208
vn -0.459486 0.322513 0.827561
vn -0.265088 0.228878 0.936666
vn -0.156209 0.0816487 0.984344
vn 0.138481 0.0193957 0.990175
vn 0.482988 0.0677563 0.873001
vn 0.897589 0.0618721 0.43647
vn 0.932388 0.0422011 0.358987
vn 0.980195 -0.0156778 -0.197411
vn 0.78148 -0.562391 -0.270197
vn 0.223631 -0.969371 0.101537
vn -0.0737254 -0.994766 -0.0707428
vn -0.221279 -0.827319 -0.516312
vn -0.488114 -0.54508 -0.681639
vn 0.960988 -0.0327565 0.274644
vn -0.7114 -0.538749 -0.451287
vn -0.752406 -0.273077 -0.599428
vn -0.793047 0.0576109 -0.60643
vn -0.843558 0.302881 -0.443478
vn -0.801316 0.570301 -0.180691
vn -0.770953 0.635921 0.0351458
vn -0.768431 0.613069 0.183465
vn -0.569924 0.59272 0.569095
vn -0.540129 0.501946 0.675507
vn -0.729206 0.60334 0.322862
vn -0.377754 0.36608 0.850463
vn -0.118149 0.353309 0.928016
vn -0.00703943 0.24304 0.969991
vn 0.334869 0.237158 0.911932
vn 0.622767 0.36255 0.693339
vn 0.892971 0.189313 0.408367
vn 0.971955 0.127076 0.197878
vn 0.979901 0.0506442 0.192947
vn 0.80485 -0.0825682 -0.587706
vn 0.140606 -0.94563 -0.293282
vn -0.0700046 -0.996966 0.0340276
vn -0.233166 -0.960474 -0.152063
vn -0.571021 -0.646406 -0.506057
vn 0.978063 0.052479 0.201591
vn -0.804999 -0.549348 -0.224041
vn -0.867813 -0.361399 -0.341016
vn -0.864666 -0.0453041 -0.5003
vn -0.877232 0.144492 -0.457807
vn -0.914783 0.377548 -0.14363
vn -0.829782 0.550813 0.089817
vn -0.830548 0.517673 0.205436
vn -0.600852 0.565717 0.564748
vn -0.454388 0.554663 0.697051
vn -0.803053 0.493891 0.333433
vn -0.24763 0.469633 0.847422
vn -0.10754 0.468793 0.876737
vn 0.0213282 0.422873 0.905938
vn 0.496109 0.468343 0.731116
vn 0.745031 0.536855 0.395872
vn 0.948744 0.256328 0.18488
vn 0.973453 -0.00308433 0.228867
vn 0.966348 0.0487291 0.252582
vn 0.996449 -0.0582693 0.0607801
vn 0.494968 -0.403315 -0.769638
vn 0.172826 -0.394171 -0.902641
vn -0.093775 -0.992424 -0.0793812
vn -0.198398 -0.979871 0.0221659
vn -0.589875 -0.765711 -0.256388
vn 0.944452 -0.0703602 0.321029
vn -0.862585 -0.503436 0.0499834
vn -0.93915 -0.336122 -0.0708476
vn -0.968388 -0.102235 -0.227537
vn -0.971245 0.173284 -0.163267
vn -0.921943 0.367226 0.123155
vn -0.907605 0.348248 0.234469
vn -0.685042 0.462569 0.562803
vn -0.44557 0.5135 0.733339
vn -0.883365 0.321445 0.341086
vn 0.289207 0.713059 0.638675
vn 0.697755 0.65336 0.293698
vn 0.815291 0.515772 0.263212
vn 0.876774 0.202974 0.43597
vn 0.487556 -0.204233 0.848869
vn 0.874416 -0.218982 0.432947
vn 0.933361 -0.184411 0.307946
vn 0.770915 -0.630605 -0.0895986
vn 0.299389 -0.869998 -0.391752
vn 0.0823834 -0.769535 -0.633268
vn -0.0105685 -0.431497 -0.902053
vn -0.223653 -0.974666 -0.00246555
vn -0.537632 -0.843173 0.00325014
vn 0.460488 -0.321451 0.827418
vn -0.892233 -0.441641 0.0942017
vn -0.944827 -0.301448 0.12818
vn -0.99225 -0.11522 0.0465311
vn -0.973309 0.200654 0.111386
vn -0.947822 0.193587 0.253294
vn -0.794885 0.422961 0.435042
vn -0.472309 0.631281 0.615149
vn -0.924905 0.190593 0.328975
vn -0.295425 0.846245 0.443388
vn 0.641632 0.764391 -0.063363
vn 0.793484 0.494914 -0.35418
vn 0.942967 0.276353 0.185587
vn 0.684682 0.28335 0.671508
vn 0.218155 -0.110946 0.969587
vn 0.486211 -0.489622 0.723788
vn 0.651697 -0.471143 0.594403
vn 0.599332 -0.789331 0.133259
vn 0.294498 -0.955497 -0.0172139
vn 0.068397 -0.96424 -0.256053
vn -0.163084 -0.709251 -0.685833
vn -0.318185 -0.565637 -0.760798
vn -0.509436 -0.859477 0.0421177
vn 0.218993 -0.425912 0.877862
vn -0.841986 -0.347292 -0.412853
vn -0.954352 -0.23508 0.184257
vn -0.977076 -0.0566439 0.205217
vn -0.917084 0.354523 0.182401
vn -0.648391 0.696645 0.307042
vn -0.959248 0.013477 0.282244
vn -0.452008 0.87947 0.149067
vn -0.277616 0.947326 0.159697
vn 0.651706 0.541892 -0.530691
vn 0.823044 0.405614 -0.397588
vn 0.958334 -0.00833324 0.285528
vn 0.587647 0.164348 0.792251
vn 0.0869994 -0.0455647 0.995166
vn 0.0741395 -0.14227 0.987047
vn 0.206225 -0.611122 0.7642
vn 0.353015 -0.656532 0.666593
vn 0.250129 -0.833499 0.49266
vn -0.0160768 -0.940079 0.340577
vn -0.247521 -0.944277 0.216968
vn -0.318983 -0.914383 -0.249307
vn -0.567424 -0.616 -0.54642
vn -0.54637 -0.603589 -0.580656
vn -0.043275 -0.671324 0.7399
vn -0.753759 -0.493918 -0.433466
vn -0.953182 -0.283937 -0.104039
vn -0.955419 -0.0345704 -0.293224
vn -0.974409 0.211201 -0.0769557
vn -0.81852 0.569492 0.0755279
vn -0.742859 0.668036 0.0434624
vn -0.176086 0.977754 0.11398
vn -0.499515 0.71322 -0.491734
vn 0.141734 0.794005 -0.591158
vn 0.763349 0.235544 -0.601513
vn 0.912483 -0.228568 0.339309
vn 0.436025 -0.154878 0.886507
vn -0.104474 -0.175751 0.978875
vn 0.00010481 -0.100537 0.994933
vn -0.181562 -0.300064 0.936481
vn -0.0463481 -0.779688 0.624451
vn 0.0535022 -0.835196 0.547344
vn -0.208424 -0.885263 0.415774
vn -0.506104 -0.839999 0.195603
vn -0.624675 -0.780824 0.00968952
vn -0.635517 -0.678794 -0.36791
vn -0.521329 -0.808246 0.273779
vn -0.737847 -0.656977 -0.154801
vn -0.87259 -0.48338 -0.0702189
vn -0.940031 -0.288357 0.182185
vn -0.993517 0.0239555 -0.111134
vn -0.916525 0.392602 -0.0764604
vn -0.913386 0.394744 0.0995122
vn -0.447027 0.877283 -0.174763
vn -0.185877 0.827083 -0.530456
vn -0.703003 0.548466 -0.452739
vn -0.22792 0.578079 -0.783503
vn 0.584326 0.340082 -0.736822
vn 0.806378 -0.498486 0.318224
vn 0.585231 -0.607451 0.537129
vn -0.153515 0.218238 0.963745
vn 0.00310039 0.043341 0.999056
vn -0.257512 -0.151619 0.954306
vn -0.770078 -0.519819 0.369822
vn -0.42851 -0.827457 0.362897
vn -0.652115 -0.734261 0.188699
vn -0.656443 -0.747018 0.105101
vn -0.63602 -0.759952 0.133985
vn -0.698255 -0.704068 0.12934
vn -0.828885 -0.538668 0.150954
vn -0.915558 -0.288288 0.280433
vn -0.98449 -0.020218 0.174271
vn -0.979869 0.167605 -0.108465
vn 0.0615614 0.31617 -0.946703
vn -0.698994 0.575825 0.424067
vn -0.934252 0.347361 0.0807066
vn -0.466615 0.58591 -0.662556
vn 0.546015 0.301673 -0.781576
vn 0.735703 -0.395031 0.550174
vn 0.794468 -0.45688 0.400103
vn -0.750422 -0.144894 0.644881
vn 0.269541 0.943782 0.191373
vn 0.329702 0.0823676 0.940485
vn -0.409558 -0.139745 0.901517
vn -0.881119 -0.271003 0.38754
vn -0.8343 -0.505498 0.220035
vn -0.971368 -0.130697 0.198402
vn -0.874784 -0.168757 -0.454175
vn 0.416854 0.821667 -0.38871
vn -0.441092 -0.062767 -0.895264
vn -0.985345 0.163851 0.0474075
vn -0.779916 -0.189537 0.596496
vn -0.49263 0.513988 -0.702233
vn 0.608363 0.313978 -0.728912
vn 0.71779 -0.312074 0.622405
vn 0.859645 -0.35263 0.36968
vn 0.73712 0.630153 0.244052
vn -0.303251 -0.566202 0.766456
vn 0.633821 0.108363 0.765851
vn -0.886691 -0.196943 0.418321
vn -0.734214 -0.613062 0.291694
vn -0.743136 -0.487788 -0.458052
vn 0.151955 0.586718 -0.795407
vn 0.650968 0.750866 -0.111545
vn -0.629784 -0.382473 -0.676082
vn -0.767541 -0.208092 0.606283
vn -0.847999 0.308371 0.43105
vn -0.11247 0.70751 0.697697
vn 0.862846 0.290217 0.413849
vn 0.890394 -0.352167 0.288404
vn 0.752953 0.604122 0.260957
vn -0.0788785 -0.706378 0.703426
vn 0.642821 0.145712 0.75203
vn -0.570146 -0.81266 0.12049
vn -0.764153 -0.490748 -0.418613
vn 0.194844 0.570363 -0.797949
vn 0.633921 0.76287 -0.12718
vn -0.739952 -0.532419 -0.411098
vn -0.344547 0.453223 0.822117
vn 0.0535103 0.17236 0.98358
vn 0.72758 0.60472 0.323946
vn -0.014829 -0.628735 0.777479
vn 0.624627 0.167232 0.762807
vn -0.61697 -0.778074 0.118105
vn -0.800728 -0.424786 -0.422365
vn 0.273965 0.636051 -0.721375
vn 0.640059 0.757323 -0.129561
vn -0.845228 -0.478294 -0.238378
vn 0.772956 0.554586 0.308176
vn -0.0274473 -0.580376 0.813886
vn 0.528494 0.106364 0.842247
vn -0.660921 -0.742025 0.112168
vn -0.812626 -0.332372 -0.478715
vn 0.0115838 0.805662 -0.592262
vn 0.649099 0.757236 -0.0725525
vn -0.892539 -0.365762 -0.263804
vn 0.644223 0.59768 0.477237
vn -0.0298245 -0.654693 0.755307
vn 0.521907 -0.0323914 0.852387
vn -0.629805 -0.765258 0.133139
vn -0.971533 -0.203237 0.121732
vn 0.0322367 0.564922 -0.824514
vn 0.717913 0.690964 -0.0846786
vn -0.603031 0.464627 0.648441
vn 0.576228 0.69304 0.433194
vn -0.816117 -0.134026 0.562129
vn -0.977039 0.17284 0.124583
vn 0.239642 0.844386 -0.479148
vn 0.461221 0.776907 -0.428591
vn -0.946608 -0.182979 -0.265429
vn -0.946608 -0.182979 -0.265429
vn -0.94661 -0.182974 -0.265423
vn -0.937402 -0.212997 -0.275519
vn -0.937402 -0.212997 -0.275519
vn -0.94661 -0.182974 -0.265423
f 1//1 2//1 3//1 4//1 
f 5//2 2//2 1//2 6//2 
f 3//3 2//3 7//3 8//3 
f 3//4 9//4 10//4 4//4 
f 11//5 12//5 1//5 4//5 
f 7//6 2//6 5//6 13//6 
f 1//7 12//7 14//7 6//7 
f 15//8 16//8 5//8 6//8 
f 7//9 17//9 18//9 8//9 
f 19//10 9//10 3//10 8//10 
f 10//11 9//11 20//11 21//11 
f 10//12 22//12 11//12 4//12 
f 23//13 12//13 11//13 24//13 
f 5//14 16//14 25//14 13//14 
f 26//15 17//15 7//15 13//15 
f 14//16 12//16 23//16 27//16 
f 14//17 28//17 15//17 6//17 
f 29//18 16//18 15//18 30//18 
f 18//19 17//19 31//19 32//19 
f 18//20 33//20 19//20 8//20 
f 20//21 9//21 19//21 34//21 
f 20//22 35//22 36//22 21//22 
f 37//23 22//23 10//23 21//23 
f 11//24 22//24 38//24 24//24 
f 39//25 40//25 23//25 24//25 
f 25//26 16//26 29//26 41//26 
f 25//27 42//27 26//27 13//27 
f 31//28 17//28 26//28 43//28 
f 23//29 40//29 44//29 27//29 
f 45//30 28//30 14//30 27//30 
f 15//31 28//31 46//31 30//31 
f 47//32 48//32 29//32 30//32 
f 31//33 49//33 50//33 32//33 
f 51//34 33//34 18//34 32//34 
f 19//35 33//35 52//35 34//35 
f 53//36 35//36 20//36 34//36 
f 36//37 35//37 54//37 55//37 
f 36//38 56//38 37//38 21//38 
f 38//39 22//39 37//39 57//39 
f 38//40 58//40 39//40 24//40 
f 44//41 40//41 39//41 59//41 
f 29//42 48//42 60//42 41//42 
f 61//43 42//43 25//43 41//43 
f 26//44 42//44 62//44 43//44 
f 63//45 49//45 31//45 43//45 
f 44//46 64//46 45//46 27//46 
f 46//47 28//47 45//47 65//47 
f 46//48 66//48 47//48 30//48 
f 67//49 48//49 47//49 68//49 
f 50//50 49//50 69//50 70//50 
f 50//51 71//51 51//51 32//51 
f 52//52 33//52 51//52 72//52 
f 52//53 73//53 53//53 34//53 
f 54//54 35//54 53//54 74//54 
f 54//55 75//55 76//55 55//55 
f 77//56 56//56 36//56 55//56 
f 37//57 56//57 78//57 57//57 
f 79//58 58//58 38//58 57//58 
f 39//59 58//59 80//59 59//59 
f 80//60 64//60 44//60 59//60 
f 60//61 48//61 67//61 81//61 
f 60//62 82//62 61//62 41//62 
f 62//63 42//63 61//63 83//63 
f 62//64 84//64 63//64 43//64 
f 69//65 49//65 63//65 85//65 
f 45//66 64//66 86//66 65//66 
f 87//67 66//67 46//67 65//67 
f 47//68 66//68 88//68 68//68 
f 89//69 90//69 67//69 68//69 
f 69//70 91//70 92//70 70//70 
f 93//71 71//71 50//71 70//71 
f 51//72 71//72 94//72 72//72 
f 95//73 73//73 52//73 72//73 
f 53//74 73//74 96//74 74//74 
f 97//75 75//75 54//75 74//75 
f 76//76 75//76 98//76 99//76 
f 76//77 100//77 77//77 55//77 
f 78//78 56//78 77//78 101//78 
f 78//79 102//79 79//79 57//79 
f 103//80 58//80 79//80 104//80 
f 80//81 58//81 103//81 105//81 
f 86//82 64//82 80//82 105//82 
f 67//83 90//83 106//83 81//83 
f 107//84 82//84 60//84 81//84 
f 61//85 82//85 108//85 83//85 
f 109//86 84//86 62//86 83//86 
f 63//87 84//87 110//87 85//87 
f 111//88 91//88 69//88 85//88 
f 86//89 112//89 87//89 65//89 
f 88//90 66//90 87//90 113//90 
f 88//91 114//91 89//91 68//91 
f 115//92 90//92 89//92 116//92 
f 92//93 91//93 117//93 118//93 
f 92//94 119//94 93//94 70//94 
f 94//95 71//95 93//95 120//95 
f 94//96 121//96 95//96 72//96 
f 96//97 73//97 95//97 122//97 
f 96//98 123//98 97//98 74//98 
f 98//99 75//99 97//99 124//99 
f 98//100 125//100 126//100 99//100 
f 127//101 100//101 76//101 99//101 
f 77//102 100//102 128//102 101//102 
f 129//103 102//103 78//103 101//103 
f 79//104 102//104 130//104 104//104 
f 131//105 132//105 103//105 104//105 
f 103//106 132//106 133//106 105//106 
f 133//107 112//107 86//107 105//107 
f 106//108 90//108 115//108 134//108 
f 106//109 135//109 107//109 81//109 
f 108//110 82//110 107//110 136//110 
f 108//111 137//111 109//111 83//111 
f 110//112 84//112 109//112 138//112 
f 110//113 139//113 111//113 85//113 
f 117//114 91//114 111//114 140//114 
f 87//115 112//115 141//115 113//115 
f 142//116 114//116 88//116 113//116 
f 89//117 114//117 143//117 116//117 
f 144//118 145//118 115//118 116//118 
f 117//119 146//119 147//119 118//119 
f 147//120 119//120 92//120 118//120 
f 93//121 119//121 148//121 120//121 
f 149//122 121//122 94//122 120//122 
f 95//123 121//123 150//123 122//123 
f 151//124 123//124 96//124 122//124 
f 97//125 123//125 152//125 124//125 
f 153//126 125//126 98//126 124//126 
f 126//127 125//127 154//127 155//127 
f 126//128 156//128 127//128 99//128 
f 128//129 100//129 127//129 157//129 
f 128//130 158//130 129//130 101//130 
f 130//131 102//131 129//131 159//131 
f 130//132 160//132 131//132 104//132 
f 161//133 132//133 131//133 162//133 
f 133//134 132//134 161//134 163//134 
f 141//135 112//135 133//135 163//135 
f 115//136 145//136 164//136 134//136 
f 165//137 135//137 106//137 134//137 
f 107//138 135//138 166//138 136//138 
f 167//139 137//139 108//139 136//139 
f 109//140 137//140 168//140 138//140 
f 169//141 139//141 110//141 138//141 
f 111//142 139//142 170//142 140//142 
f 171//143 146//143 117//143 140//143 
f 141//144 172//144 142//144 113//144 
f 143//145 114//145 142//145 173//145 
f 143//146 174//146 144//146 116//146 
f 175//147 145//147 144//147 176//147 
f 147//148 146//148 177//148 178//148 
f 148//149 119//149 147//149 178//149 
f 148//150 179//150 149//150 120//150 
f 150//151 121//151 149//151 180//151 
f 150//152 181//152 151//152 122//152 
f 152//153 123//153 151//153 182//153 
f 152//154 183//154 153//154 124//154 
f 154//155 125//155 153//155 184//155 
f 154//156 185//156 186//156 155//156 
f 187//157 156//157 126//157 155//157 
f 127//158 156//158 188//158 157//158 
f 189//159 158//159 128//159 157//159 
f 129//160 158//160 190//160 159//160 
f 191//161 160//161 130//161 159//161 
f 131//162 160//162 192//162 162//162 
f 193//163 194//163 161//163 162//163 
f 161//164 194//164 195//164 163//164 
f 195//165 172//165 141//165 163//165 
f 164//166 145//166 175//166 196//166 
f 164//167 197//167 165//167 134//167 
f 166//168 135//168 165//168 198//168 
f 166//169 199//169 167//169 136//169 
f 168//170 137//170 167//170 200//170 
f 168//171 201//171 169//171 138//171 
f 170//172 139//172 169//172 202//172 
f 170//173 203//173 171//173 140//173 
f 177//174 146//174 171//174 204//174 
f 142//175 172//175 205//175 173//175 
f 206//176 174//176 143//176 173//176 
f 144//177 174//177 207//177 176//177 
f 208//178 209//178 175//178 176//178 
f 177//179 210//179 211//179 178//179 
f 211//180 179//180 148//180 178//180 
f 149//181 179//181 212//181 180//181 
f 213//182 181//182 150//182 180//182 
f 151//183 181//183 214//183 182//183 
f 215//184 183//184 152//184 182//184 
f 153//185 183//185 216//185 184//185 
f 216//186 185//186 154//186 184//186 
f 186//187 185//187 217//187 218//187 
f 186//188 219//188 187//188 155//188 
f 188//189 156//189 187//189 220//189 
f 188//190 221//190 189//190 157//190 
f 190//191 158//191 189//191 222//191 
f 190//192 223//192 191//192 159//192 
f 192//193 160//193 191//193 224//193 
f 192//194 225//194 193//194 162//194 
f 226//195 194//195 193//195 227//195 
f 195//196 194//196 226//196 228//196 
f 205//197 172//197 195//197 228//197 
f 175//198 209//198 229//198 196//198 
f 230//199 197//199 164//199 196//199 
f 165//200 197//200 231//200 198//200 
f 232//201 199//201 166//201 198//201 
f 167//202 199//202 233//202 200//202 
f 234//203 201//203 168//203 200//203 
f 169//204 201//204 235//204 202//204 
f 236//205 203//205 170//205 202//205 
f 171//206 203//206 237//206 204//206 
f 238//207 210//207 177//207 204//207 
f 205//208 239//208 206//208 173//208 
f 207//209 174//209 206//209 240//209 
f 207//210 241//210 208//210 176//210 
f 229//211 209//211 208//211 242//211 
f 211//212 210//212 243//212 244//212 
f 212//213 179//213 211//213 244//213 
f 212//214 245//214 213//214 180//214 
f 214//215 181//215 213//215 246//215 
f 214//216 247//216 215//216 182//216 
f 216//217 183//217 215//217 248//217 
f 217//218 185//218 216//218 248//218 
f 217//219 249//219 250//219 218//219 
f 251//220 219//220 186//220 218//220 
f 187//221 219//221 252//221 220//221 
f 253//222 221//222 188//222 220//222 
f 189//223 221//223 254//223 222//223 
f 255//224 223//224 190//224 222//224 
f 191//225 223//225 256//225 224//225 
f 257//226 225//226 192//226 224//226 
f 193//227 225//227 258//227 227//227 
f 259//228 260//228 226//228 227//228 
f 226//229 260//229 261//229 228//229 
f 261//230 239//230 205//230 228//230 
f 229//231 262//231 263//231 196//231 
f 231//232 197//232 230//232 264//232 
f 263//233 265//233 230//233 196//233 
f 231//234 266//234 232//234 198//234 
f 233//235 199//235 232//235 267//235 
f 233//236 268//236 234//236 200//236 
f 235//237 201//237 234//237 269//237 
f 235//238 270//238 236//238 202//238 
f 237//239 203//239 236//239 271//239 
f 237//240 272//240 238//240 204//240 
f 273//241 210//241 238//241 274//241 
f 206//242 239//242 275//242 240//242 
f 276//243 241//243 207//243 240//243 
f 208//244 241//244 277//244 242//244 
f 278//245 262//245 229//245 242//245 
f 243//246 210//246 273//246 279//246 
f 243//247 280//247 281//247 244//247 
f 281//248 245//248 212//248 244//248 
f 213//249 245//249 282//249 246//249 
f 283//250 247//250 214//250 246//250 
f 215//251 247//251 284//251 248//251 
f 284//252 249//252 217//252 248//252 
f 250//253 249//253 285//253 286//253 
f 250//254 287//254 251//254 218//254 
f 252//255 219//255 251//255 288//255 
f 252//256 289//256 253//256 220//256 
f 254//257 221//257 253//257 290//257 
f 254//258 291//258 255//258 222//258 
f 256//259 223//259 255//259 292//259 
f 256//260 293//260 294//260 224//260 
f 258//261 225//261 257//261 295//261 
f 294//262 296//262 257//262 224//262 
f 258//263 297//263 259//263 227//263 
f 298//264 260//264 259//264 299//264 
f 261//265 260//265 298//265 300//265 
f 275//266 239//266 261//266 300//266 
f 263//267 262//267 278//267 301//267 
f 230//268 265//268 302//268 264//268 
f 303//269 266//269 231//269 264//269 
f 304//270 265//270 263//270 301//270 
f 232//271 266//271 305//271 267//271 
f 306//272 268//272 233//272 267//272 
f 234//273 268//273 307//273 269//273 
f 308//274 270//274 235//274 269//274 
f 236//275 270//275 308//275 271//275 
f 309//276 272//276 237//276 271//276 
f 238//277 272//277 310//277 274//277 
f 311//278 312//278 273//278 274//278 
f 275//279 313//279 276//279 240//279 
f 277//280 241//280 276//280 314//280 
f 277//281 315//281 278//281 242//281 
f 273//282 312//282 316//282 279//282 
f 317//283 280//283 243//283 279//283 
f 281//284 280//284 318//284 319//284 
f 282//285 245//285 281//285 319//285 
f 282//286 320//286 283//286 246//286 
f 284//287 247//287 283//287 321//287 
f 285//288 249//288 284//288 321//288 
f 285//289 322//289 323//289 286//289 
f 324//290 287//290 250//290 286//290 
f 251//291 287//291 325//291 288//291 
f 326//292 289//292 252//292 288//292 
f 253//293 289//293 327//293 290//293 
f 328//294 291//294 254//294 290//294 
f 255//295 291//295 329//295 292//295 
f 330//296 293//296 256//296 292//296 
f 294//297 293//297 330//297 331//297 
f 257//298 296//298 332//298 295//298 
f 333//299 297//299 258//299 295//299 
f 334//300 296//300 294//300 331//300 
f 259//301 297//301 333//301 299//301 
f 335//302 336//302 298//302 299//302 
f 298//303 336//303 337//303 300//303 
f 337//304 313//304 275//304 300//304 
f 278//305 315//305 338//305 301//305 
f 302//306 265//306 304//306 339//306 
f 302//307 340//307 303//307 264//307 
f 305//308 266//308 303//308 341//308 
f 338//309 342//309 304//309 301//309 
f 305//310 343//310 306//310 267//310 
f 307//311 268//311 306//311 344//311 
f 307//312 345//312 308//312 269//312 
f 308//313 345//313 346//313 271//313 
f 310//314 272//314 309//314 347//314 
f 346//315 348//315 309//315 271//315 
f 310//316 349//316 350//316 274//316 
f 316//317 312//317 311//317 351//317 
f 350//318 352//318 311//318 274//318 
f 276//319 313//319 353//319 314//319 
f 354//320 315//320 277//320 314//320 
f 316//321 355//321 356//321 279//321 
f 318//322 280//322 317//322 357//322 
f 356//323 358//323 317//323 279//323 
f 318//324 359//324 360//324 319//324 
f 360//325 320//325 282//325 319//325 
f 283//326 320//326 361//326 321//326 
f 361//327 322//327 285//327 321//327 
f 323//328 322//328 362//328 363//328 
f 323//329 364//329 324//329 286//329 
f 325//330 287//330 324//330 365//330 
f 325//331 366//331 326//331 288//331 
f 327//332 289//332 326//332 367//332 
f 327//333 368//333 328//333 290//333 
f 329//334 291//334 328//334 369//334 
f 329//335 370//335 330//335 292//335 
f 330//336 370//336 371//336 331//336 
f 332//337 296//337 334//337 372//337 
f 332//338 373//338 333//338 295//338 
f 371//339 374//339 334//339 331//339 
f 333//340 373//340 335//340 299//340 
f 375//341 336//341 335//341 376//341 
f 337//342 336//342 375//342 377//342 
f 353//343 313//343 337//343 377//343 
f 338//344 315//344 354//344 378//344 
f 304//345 342//345 379//345 339//345 
f 380//346 340//346 302//346 339//346 
f 303//347 340//347 381//347 341//347 
f 382//348 343//348 305//348 341//348 
f 383//349 342//349 338//349 378//349 
f 306//350 343//350 384//350 344//350 
f 385//351 345//351 307//351 344//351 
f 346//352 345//352 385//352 386//352 
f 309//353 348//353 387//353 347//353 
f 388//354 349//354 310//354 347//354 
f 389//355 348//355 346//355 386//355 
f 350//356 349//356 390//356 391//356 
f 311//357 352//357 392//357 351//357 
f 356//358 355//358 316//358 351//358 
f 392//359 352//359 350//359 391//359 
f 353//360 393//360 354//360 314//360 
f 317//361 358//361 394//361 357//361 
f 395//362 359//362 318//362 357//362 
f 392//363 358//363 356//363 351//363 
f 360//364 359//364 396//364 397//364 
f 361//365 320//365 360//365 397//365 
f 362//366 322//366 361//366 397//366 
f 362//367 398//367 399//367 363//367 
f 400//368 364//368 323//368 363//368 
f 324//369 364//369 401//369 365//369 
f 402//370 366//370 325//370 365//370 
f 326//371 366//371 403//371 367//371 
f 404//372 368//372 327//372 367//372 
f 328//373 368//373 405//373 369//373 
f 406//374 370//374 329//374 369//374 
f 371//375 370//375 406//375 407//375 
f 334//376 374//376 408//376 372//376 
f 409//377 373//377 332//377 372//377 
f 410//378 374//378 371//378 407//378 
f 335//379 373//379 409//379 376//379 
f 411//380 412//380 375//380 376//380 
f 375//381 412//381 413//381 377//381 
f 413//382 393//382 353//382 377//382 
f 354//383 393//383 414//383 378//383 
f 379//384 342//384 383//384 415//384 
f 379//385 416//385 380//385 339//385 
f 381//386 340//386 380//386 417//386 
f 381//387 418//387 382//387 341//387 
f 384//388 343//388 382//388 419//388 
f 414//389 420//389 383//389 378//389 
f 384//390 421//390 385//390 344//390 
f 385//391 421//391 422//391 386//391 
f 387//392 348//392 389//392 423//392 
f 387//393 424//393 388//393 347//393 
f 390//394 349//394 388//394 425//394 
f 422//395 426//395 389//395 386//395 
f 390//396 427//396 428//396 391//396 
f 428//397 358//397 392//397 391//397 
f 394//398 358//398 428//398 429//398 
f 394//399 430//399 395//399 357//399 
f 396//400 359//400 395//400 431//400 
f 396//401 398//401 362//401 397//401 
f 399//402 398//402 432//402 433//402 
f 399//403 434//403 400//403 363//403 
f 401//404 364//404 400//404 435//404 
f 401//405 436//405 402//405 365//405 
f 403//406 366//406 402//406 437//406 
f 403//407 438//407 404//407 367//407 
f 405//408 368//408 404//408 439//408 
f 405//409 440//409 406//409 369//409 
f 406//410 440//410 441//410 407//410 
f 408//411 374//411 410//411 442//411 
f 408//412 443//412 409//412 372//412 
f 441//413 444//413 410//413 407//413 
f 409//414 443//414 411//414 376//414 
f 445//415 412//415 411//415 446//415 
f 413//416 412//416 445//416 447//416 
f 414//417 393//417 413//417 447//417 
f 383//418 420//418 448//418 415//418 
f 449//419 416//419 379//419 415//419 
f 380//420 416//420 450//420 417//420 
f 451//421 418//421 381//421 417//421 
f 382//422 418//422 452//422 419//422 
f 453//423 421//423 384//423 419//423 
f 454//424 420//424 414//424 447//424 
f 422//425 421//425 453//425 455//425 
f 389//426 426//426 456//426 423//426 
f 457//427 424//427 387//427 423//427 
f 388//428 424//428 458//428 425//428 
f 459//429 427//429 390//429 425//429 
f 460//430 426//430 422//430 455//430 
f 428//431 427//431 461//431 429//431 
f 462//432 430//432 394//432 429//432 
f 395//433 430//433 463//433 431//433 
f 432//434 398//434 396//434 431//434 
f 432//435 464//435 463//435 433//435 
f 462//436 434//436 399//436 433//436 
f 400//437 434//437 465//437 435//437 
f 466//438 436//438 401//438 435//438 
f 402//439 436//439 467//439 437//439 
f 468//440 438//440 403//440 437//440 
f 404//441 438//441 469//441 439//441 
f 470//442 440//442 405//442 439//442 
f 441//443 440//443 470//443 471//443 
f 410//444 444//444 472//444 442//444 
f 473//445 443//445 408//445 442//445 
f 474//446 444//446 441//446 471//446 
f 411//447 443//447 473//447 446//447 
f 475//448 476//448 445//448 446//448 
f 445//449 476//449 454//449 447//449 
f 448//450 420//450 454//450 477//450 
f 448//451 478//451 449//451 415//451 
f 450//452 416//452 449//452 479//452 
f 450//453 480//453 451//453 417//453 
f 452//454 418//454 451//454 481//454 
f 452//455 482//455 453//455 419//455 
f 453//456 482//456 483//456 455//456 
f 456//457 426//457 460//457 484//457 
f 456//458 485//458 457//458 423//458 
f 458//459 424//459 457//459 486//459 
f 458//460 487//460 459//460 425//460 
f 461//461 427//461 459//461 488//461 
f 483//462 489//462 460//462 455//462 
f 461//463 434//463 462//463 429//463 
f 463//464 430//464 462//464 433//464 
f 463//465 464//465 432//465 431//465 
f 465//466 434//466 490//466 491//466 
f 465//467 492//467 466//467 435//467 
f 467//468 436//468 466//468 493//468 
f 467//469 494//469 468//469 437//469 
f 469//470 438//470 468//470 495//470 
f 469//471 496//471 470//471 439//471 
f 470//472 496//472 497//472 471//472 
f 472//473 444//473 474//473 498//473 
f 472//474 499//474 473//474 442//474 
f 497//475 500//475 474//475 471//475 
f 473//476 499//476 475//476 446//476 
f 501//477 476//477 475//477 502//477 
f 454//478 476//478 501//478 477//478 
f 503//479 478//479 448//479 477//479 
f 449//480 478//480 504//480 479//480 
f 505//481 480//481 450//481 479//481 
f 451//482 480//482 506//482 481//482 
f 507//483 482//483 452//483 481//483 
f 483//484 482//484 507//484 508//484 
f 460//485 489//485 509//485 484//485 
f 510//486 485//486 456//486 484//486 
f 457//487 485//487 511//487 486//487 
f 512//488 487//488 458//488 486//488 
f 459//489 487//489 513//489 488//489 
f 490//490 434//490 461//490 488//490 
f 514//491 489//491 483//491 508//491 
f 490//492 515//492 516//492 491//492 
f 517//493 492//493 465//493 491//493 
f 466//494 492//494 518//494 493//494 
f 519//495 494//495 467//495 493//495 
f 468//496 494//496 520//496 495//496 
f 521//497 496//497 469//497 495//497 
f 497//498 496//498 521//498 522//498 
f 474//499 500//499 523//499 498//499 
f 524//500 499//500 472//500 498//500 
f 525//501 500//501 497//501 522//501 
f 475//502 499//502 524//502 502//502 
f 526//503 527//503 501//503 502//503 
f 501//504 527//504 503//504 477//504 
f 504//505 478//505 503//505 528//505 
f 504//506 529//506 505//506 479//506 
f 506//507 480//507 505//507 530//507 
f 506//508 531//508 507//508 481//508 
f 507//509 531//509 532//509 508//509 
f 509//510 489//510 514//510 533//510 
f 509//511 534//511 510//511 484//511 
f 511//512 485//512 510//512 535//512 
f 511//513 536//513 512//513 486//513 
f 513//514 487//514 512//514 537//514 
f 513//515 515//515 490//515 488//515 
f 532//516 538//516 514//516 508//516 
f 516//517 515//517 539//517 540//517 
f 516//518 541//518 517//518 491//518 
f 518//519 492//519 517//519 542//519 
f 518//520 543//520 519//520 493//520 
f 520//521 494//521 519//521 544//521 
f 520//522 545//522 521//522 495//522 
f 521//523 545//523 546//523 522//523 
f 523//524 500//524 525//524 547//524 
f 523//525 548//525 524//525 498//525 
f 546//526 549//526 525//526 522//526 
f 524//527 548//527 526//527 502//527 
f 550//528 527//528 526//528 551//528 
f 503//529 527//529 550//529 528//529 
f 552//530 529//530 504//530 528//530 
f 505//531 529//531 553//531 530//531 
f 554//532 531//532 506//532 530//532 
f 532//533 531//533 555//533 556//533 
f 514//534 538//534 557//534 533//534 
f 558//535 534//535 509//535 533//535 
f 510//536 534//536 559//536 535//536 
f 560//537 536//537 511//537 535//537 
f 512//538 536//538 561//538 537//538 
f 539//539 515//539 513//539 537//539 
f 562//540 538//540 532//540 556//540 
f 539//541 563//541 564//541 540//541 
f 565//542 541//542 516//542 540//542 
f 517//543 541//543 566//543 542//543 
f 567//544 543//544 518//544 542//544 
f 519//545 543//545 568//545 544//545 
f 569//546 545//546 520//546 544//546 
f 546//547 545//547 569//547 570//547 
f 525//548 549//548 571//548 547//548 
f 572//549 548//549 523//549 547//549 
f 573//550 549//550 546//550 570//550 
f 526//551 548//551 572//551 551//551 
f 574//552 575//552 550//552 551//552 
f 550//553 575//553 552//553 528//553 
f 553//554 529//554 552//554 576//554 
f 553//555 577//555 554//555 530//555 
f 555//556 531//556 554//556 578//556 
f 555//557 579//557 580//557 556//557 
f 557//558 538//558 562//558 581//558 
f 557//559 582//559 558//559 533//559 
f 559//560 534//560 558//560 583//560 
f 559//561 584//561 560//561 535//561 
f 561//562 536//562 560//562 585//562 
f 561//563 563//563 539//563 537//563 
f 580//564 586//564 562//564 556//564 
f 564//565 563//565 587//565 588//565 
f 564//566 589//566 565//566 540//566 
f 566//567 541//567 565//567 590//567 
f 566//568 591//568 567//568 542//568 
f 568//569 543//569 567//569 592//569 
f 568//570 593//570 569//570 544//570 
f 569//571 593//571 594//571 570//571 
f 571//572 549//572 573//572 595//572 
f 571//573 596//573 572//573 547//573 
f 594//574 597//574 573//574 570//574 
f 572//575 596//575 574//575 551//575 
f 598//576 575//576 574//576 599//576 
f 552//577 575//577 598//577 576//577 
f 600//578 577//578 553//578 576//578 
f 554//579 577//579 601//579 578//579 
f 602//580 579//580 555//580 578//580 
f 580//581 579//581 603//581 604//581 
f 562//582 586//582 605//582 581//582 
f 606//583 582//583 557//583 581//583 
f 558//584 582//584 607//584 583//584 
f 608//585 584//585 559//585 583//585 
f 560//586 584//586 609//586 585//586 
f 587//587 563//587 561//587 585//587 
f 610//588 586//588 580//588 604//588 
f 587//589 611//589 612//589 588//589 
f 613//590 589//590 564//590 588//590 
f 565//591 589//591 614//591 590//591 
f 614//592 591//592 566//592 590//592 
f 567//593 591//593 615//593 592//593 
f 616//594 593//594 568//594 592//594 
f 594//595 593//595 616//595 617//595 
f 573//596 597//596 618//596 595//596 
f 619//597 596//597 571//597 595//597 
f 620//598 597//598 594//598 617//598 
f 574//599 596//599 619//599 599//599 
f 619//600 621//600 598//600 599//600 
f 598//601 621//601 600//601 576//601 
f 601//602 577//602 600//602 622//602 
f 601//603 623//603 602//603 578//603 
f 603//604 579//604 602//604 624//604 
f 603//605 625//605 626//605 604//605 
f 605//606 586//606 610//606 627//606 
f 605//607 628//607 606//607 581//607 
f 629//608 582//608 606//608 630//608 
f 607//609 582//609 629//609 631//609 
f 607//610 632//610 608//610 583//610 
f 609//611 584//611 608//611 633//611 
f 609//612 611//612 587//612 585//612 
f 626//613 634//613 610//613 604//613 
f 612//614 611//614 635//614 636//614 
f 612//615 637//615 613//615 588//615 
f 614//616 589//616 613//616 638//616 
f 615//617 591//617 614//617 638//617 
f 615//618 639//618 616//618 592//618 
f 616//619 639//619 640//619 617//619 
f 618//620 597//620 620//620 641//620 
f 618//621 621//621 619//621 595//621 
f 640//622 642//622 620//622 617//622 
f 600//623 621//623 643//623 622//623 
f 644//624 623//624 601//624 622//624 
f 602//625 623//625 645//625 624//625 
f 646//626 625//626 603//626 624//626 
f 626//627 625//627 646//627 647//627 
f 610//628 634//628 648//628 627//628 
f 649//629 628//629 605//629 627//629 
f 606//630 628//630 650//630 630//630 
f 650//631 651//631 629//631 630//631 
f 629//632 651//632 652//632 631//632 
f 653//633 632//633 607//633 631//633 
f 608//634 632//634 654//634 633//634 
f 635//635 611//635 609//635 633//635 
f 655//636 634//636 626//636 647//636 
f 635//637 656//637 657//637 636//637 
f 658//638 637//638 612//638 636//638 
f 613//639 637//639 659//639 638//639 
f 659//640 639//640 615//640 638//640 
f 640//641 639//641 659//641 660//641 
f 620//642 642//642 661//642 641//642 
f 662//643 621//643 618//643 641//643 
f 663//644 642//644 640//644 660//644 
f 643//645 621//645 662//645 664//645 
f 643//646 665//646 644//646 622//646 
f 666//647 623//647 644//647 667//647 
f 645//648 623//648 666//648 668//648 
f 645//649 669//649 646//649 624//649 
f 646//650 669//650 670//650 647//650 
f 648//651 634//651 655//651 671//651 
f 648//652 672//652 649//652 627//652 
f 650//653 628//653 649//653 673//653 
f 674//654 651//654 650//654 673//654 
f 652//655 651//655 674//655 675//655 
f 652//656 676//656 653//656 631//656 
f 654//657 632//657 653//657 677//657 
f 654//658 656//658 635//658 633//658 
f 678//659 679//659 655//659 647//659 
f 657//660 656//660 680//660 681//660 
f 657//661 682//661 658//661 636//661 
f 659//662 637//662 658//662 660//662 
f 661//663 642//663 663//663 683//663 
f 661//664 684//664 662//664 641//664 
f 658//665 682//665 663//665 660//665 
f 662//666 684//666 685//666 664//666 
f 686//667 665//667 643//667 664//667 
f 644//668 665//668 687//668 667//668 
f 687//669 688//669 666//669 667//669 
f 666//670 688//670 689//670 668//670 
f 690//671 669//671 645//671 668//671 
f 670//672 669//672 690//672 691//672 
f 670//673 692//673 678//673 647//673 
f 655//674 679//674 693//674 671//674 
f 693//675 672//675 648//675 671//675 
f 649//676 672//676 694//676 673//676 
f 694//677 695//677 674//677 673//677 
f 674//678 695//678 696//678 675//678 
f 696//679 676//679 652//679 675//679 
f 653//680 676//680 697//680 677//680 
f 698//681 656//681 654//681 677//681 
f 699//682 679//682 678//682 700//682 
f 680//683 656//683 698//683 701//683 
f 680//684 702//684 703//684 681//684 
f 704//685 682//685 657//685 681//685 
f 663//686 682//686 704//686 683//686 
f 705//687 684//687 661//687 683//687 
f 685//688 684//688 705//688 706//688 
f 685//689 707//689 686//689 664//689 
f 708//690 665//690 686//690 709//690 
f 687//691 665//691 708//691 710//691 
f 711//692 688//692 687//692 710//692 
f 689//693 688//693 711//693 712//693 
f 689//694 713//694 690//694 668//694 
f 690//695 713//695 714//695 691//695 
f 715//696 692//696 670//696 691//696 
f 678//697 692//697 716//697 700//697 
f 693//698 679//698 699//698 717//698 
f 694//699 672//699 693//699 717//699 
f 718//700 695//700 694//700 717//700 
f 696//701 695//701 718//701 719//701 
f 697//702 676//702 696//702 719//702 
f 697//703 720//703 698//703 677//703 
f 721//704 722//704 699//704 700//704 
f 698//705 720//705 723//705 701//705 
f 723//706 702//706 680//706 701//706 
f 703//707 702//707 724//707 725//707 
f 703//708 726//708 704//708 681//708 
f 704//709 726//709 705//709 683//709 
f 705//710 726//710 727//710 706//710 
f 728//711 707//711 685//711 706//711 
f 686//712 707//712 729//712 709//712 
f 729//713 730//713 708//713 709//713 
f 708//714 730//714 731//714 710//714 
f 731//715 732//715 711//715 710//715 
f 711//716 732//716 733//716 712//716 
f 734//717 713//717 689//717 712//717 
f 714//718 713//718 735//718 736//718 
f 714//719 737//719 715//719 691//719 
f 716//720 692//720 715//720 738//720 
f 716//721 739//721 721//721 700//721 
f 699//722 722//722 718//722 717//722 
f 718//723 722//723 740//723 719//723 
f 740//724 720//724 697//724 719//724 
f 740//725 722//725 721//725 741//725 
f 723//726 720//726 740//726 741//726 
f 724//727 702//727 723//727 741//727 
f 724//728 739//728 742//728 725//728 
f 727//729 726//729 703//729 725//729 
f 727//730 743//730 728//730 706//730 
f 744//731 707//731 728//731 745//731 
f 729//732 707//732 735//732 746//732 
f 747//733 730//733 729//733 746//733 
f 731//734 730//734 748//734 749//734 
f 750//735 732//735 731//735 749//735 
f 733//736 732//736 750//736 751//736 
f 733//737 752//737 734//737 712//737 
f 735//738 713//738 734//738 746//738 
f 735//739 707//739 753//739 736//739 
f 754//740 737//740 714//740 736//740 
f 715//741 737//741 755//741 738//741 
f 742//742 739//742 716//742 738//742 
f 721//743 739//743 724//743 741//743 
f 742//744 743//744 727//744 725//744 
f 728//745 743//745 756//745 745//745 
f 753//746 707//746 744//746 757//746 
f 758//747 759//747 744//747 745//747 
f 748//748 730//748 747//748 760//748 
f 734//749 752//749 747//749 746//749 
f 748//750 761//750 762//750 749//750 
f 762//751 763//751 750//751 749//751 
f 750//752 763//752 764//752 751//752 
f 765//753 752//753 733//753 751//753 
f 753//754 766//754 767//754 736//754 
f 755//755 737//755 754//755 768//755 
f 767//756 769//756 754//756 736//756 
f 755//757 743//757 742//757 738//757 
f 756//758 743//758 755//758 768//758 
f 756//759 770//759 758//759 745//759 
f 744//760 759//760 771//760 757//760 
f 771//761 766//761 753//761 757//761 
f 772//762 759//762 758//762 773//762 
f 747//763 752//763 765//763 760//763 
f 774//764 761//764 748//764 760//764 
f 762//765 761//765 774//765 775//765 
f 764//766 763//766 762//766 775//766 
f 764//767 776//767 765//767 751//767 
f 767//768 766//768 777//768 778//768 
f 754//769 769//769 779//769 768//769 
f 780//770 769//770 767//770 778//770 
f 779//771 770//771 756//771 768//771 
f 758//772 770//772 781//772 773//772 
f 771//773 759//773 772//773 782//773 
f 777//774 766//774 771//774 782//774 
f 783//775 784//775 772//775 773//775 
f 765//776 776//776 774//776 760//776 
f 774//777 776//777 764//777 775//777 
f 777//778 785//778 786//778 778//778 
f 779//779 769//779 780//779 787//779 
f 786//780 788//780 780//780 778//780 
f 781//781 770//781 779//781 787//781 
f 781//782 789//782 783//782 773//782 
f 772//783 784//783 790//783 782//783 
f 790//784 785//784 777//784 782//784 
f 791//785 784//785 783//785 792//785 
f 786//786 785//786 793//786 794//786 
f 780//787 788//787 795//787 787//787 
f 796//788 788//788 786//788 794//788 
f 795//789 789//789 781//789 787//789 
f 783//790 789//790 797//790 792//790 
f 790//791 784//791 791//791 798//791 
f 793//792 785//792 790//792 798//792 
f 799//793 800//793 791//793 792//793 
f 793//794 801//794 802//794 794//794 
f 795//795 788//795 796//795 803//795 
f 802//796 804//796 796//796 794//796 
f 797//797 789//797 795//797 803//797 
f 797//798 804//798 799//798 792//798 
f 791//799 800//799 805//799 798//799 
f 806//800 801//800 793//800 798//800 
f 805//801 800//801 799//801 807//801 
f 802//802 801//802 806//802 807//802 
f 796//803 804//803 797//803 803//803 
f 799//804 804//804 802//804 807//804 
f 805//805 808//805 806//805 798//805 
f 806//806 808//806 805//806 807//806 
f 809//807 810//807 811//807 812//807 
f 811//808 810//808 809//808 813//808 
f 811//809 814//809 815//809 812//809 
f 815//810 816//810 809//810 812//810 
f 809//811 816//811 815//811 813//811 
f 815//812 814//812 811//812 813//812 
